<?xml version="1.0" encoding="utf-8"?>
<!-- Generator: Adobe Illustrator 15.0.2, SVG Export Plug-In . SVG Version: 6.00 Build 0)  -->
<!DOCTYPE svg PUBLIC "-//W3C//DTD SVG 1.1//EN" "http://www.w3.org/Graphics/SVG/1.1/DTD/svg11.dtd">
<svg version="1.1" id="Layer_1" xmlns="http://www.w3.org/2000/svg" xmlns:xlink="http://www.w3.org/1999/xlink" x="0px" y="0px"
	 width="360px" height="216px" viewBox="0 0 360 216" enable-background="new 0 0 360 216" xml:space="preserve">
<rect fill="none" width="360" height="216"/>
<g>
	<defs>
		<rect id="SVGID_1_" x="35.49" y="3.99" width="226.38" height="189.62"/>
	</defs>
	<clipPath id="SVGID_2_">
		<use xlink:href="#SVGID_1_"  overflow="visible"/>
	</clipPath>
	<rect x="35.49" y="3.99" clip-path="url(#SVGID_2_)" fill="#FFFFFF" width="226.38" height="189.62"/>
	
		<line clip-path="url(#SVGID_2_)" fill="none" stroke="#FAFAFA" stroke-width="1.07" stroke-linejoin="round" stroke-miterlimit="10" x1="35.49" y1="144.43" x2="261.87" y2="144.43"/>
	
		<line clip-path="url(#SVGID_2_)" fill="none" stroke="#FAFAFA" stroke-width="1.07" stroke-linejoin="round" stroke-miterlimit="10" x1="35.49" y1="74.87" x2="261.87" y2="74.87"/>
	
		<line clip-path="url(#SVGID_2_)" fill="none" stroke="#FAFAFA" stroke-width="1.07" stroke-linejoin="round" stroke-miterlimit="10" x1="35.49" y1="38.87" x2="261.87" y2="38.87"/>
	
		<line clip-path="url(#SVGID_2_)" fill="none" stroke="#FAFAFA" stroke-width="1.07" stroke-linejoin="round" stroke-miterlimit="10" x1="90.8" y1="193.61" x2="90.8" y2="3.99"/>
	
		<line clip-path="url(#SVGID_2_)" fill="none" stroke="#FAFAFA" stroke-width="1.07" stroke-linejoin="round" stroke-miterlimit="10" x1="155.11" y1="193.61" x2="155.11" y2="3.99"/>
	
		<line clip-path="url(#SVGID_2_)" fill="none" stroke="#FAFAFA" stroke-width="1.07" stroke-linejoin="round" stroke-miterlimit="10" x1="219.42" y1="193.61" x2="219.42" y2="3.99"/>
	
		<line clip-path="url(#SVGID_2_)" fill="none" stroke="#E5E5E5" stroke-width="0.43" stroke-linejoin="round" stroke-miterlimit="10" x1="35.49" y1="193.61" x2="261.87" y2="193.61"/>
	
		<line clip-path="url(#SVGID_2_)" fill="none" stroke="#E5E5E5" stroke-width="0.43" stroke-linejoin="round" stroke-miterlimit="10" x1="35.49" y1="95.24" x2="261.87" y2="95.24"/>
	
		<line clip-path="url(#SVGID_2_)" fill="none" stroke="#E5E5E5" stroke-width="0.43" stroke-linejoin="round" stroke-miterlimit="10" x1="35.49" y1="54.5" x2="261.87" y2="54.5"/>
	
		<line clip-path="url(#SVGID_2_)" fill="none" stroke="#E5E5E5" stroke-width="0.43" stroke-linejoin="round" stroke-miterlimit="10" x1="35.49" y1="23.24" x2="261.87" y2="23.24"/>
	
		<line clip-path="url(#SVGID_2_)" fill="none" stroke="#E5E5E5" stroke-width="0.43" stroke-linejoin="round" stroke-miterlimit="10" x1="58.64" y1="193.61" x2="58.64" y2="3.99"/>
	
		<line clip-path="url(#SVGID_2_)" fill="none" stroke="#E5E5E5" stroke-width="0.43" stroke-linejoin="round" stroke-miterlimit="10" x1="122.95" y1="193.61" x2="122.95" y2="3.99"/>
	
		<line clip-path="url(#SVGID_2_)" fill="none" stroke="#E5E5E5" stroke-width="0.43" stroke-linejoin="round" stroke-miterlimit="10" x1="187.27" y1="193.61" x2="187.27" y2="3.99"/>
	
		<line clip-path="url(#SVGID_2_)" fill="none" stroke="#E5E5E5" stroke-width="0.43" stroke-linejoin="round" stroke-miterlimit="10" x1="251.58" y1="193.61" x2="251.58" y2="3.99"/>
	<polygon clip-path="url(#SVGID_2_)" fill="#E41A1C" points="45.78,193.61 58.64,193.61 71.5,193.61 84.37,193.61 97.23,192.4 
		110.09,192.62 122.95,191.01 135.82,190.58 148.68,185.68 161.54,186.69 174.4,183.85 187.27,182.18 200.13,172.18 212.99,156.69 
		225.85,145.6 238.72,139.77 251.58,115.15 251.58,193.61 238.72,193.61 225.85,193.61 212.99,193.61 200.13,193.61 187.27,193.61 
		174.4,193.61 161.54,193.61 148.68,193.61 135.82,193.61 122.95,193.61 110.09,193.61 97.23,193.61 84.37,193.61 71.5,193.61 
		58.64,193.61 	"/>
	<polygon clip-path="url(#SVGID_2_)" fill="#377EB8" points="45.78,193.61 58.64,193.61 71.5,193.61 84.37,193.61 97.23,191.71 
		110.09,190.66 122.95,189.3 135.82,185.19 148.68,180.38 161.54,180.31 174.4,171.72 187.27,170.77 200.13,157.88 212.99,135.73 
		225.85,100.96 238.72,78.37 251.58,35.92 251.58,115.15 238.72,139.77 225.85,145.6 212.99,156.69 200.13,172.18 187.27,182.18 
		174.4,183.85 161.54,186.69 148.68,185.68 135.82,190.58 122.95,191.01 110.09,192.62 97.23,192.4 84.37,193.61 71.5,193.61 
		58.64,193.61 	"/>
	<polygon clip-path="url(#SVGID_2_)" fill="#4DAF4A" points="45.78,193.61 58.64,193.61 71.5,193.61 84.37,192.62 97.23,188.76 
		110.09,188.82 122.95,188.61 135.82,184.21 148.68,178.99 161.54,177.81 174.4,166.2 187.27,164.83 200.13,153.59 212.99,129.24 
		225.85,91.15 238.72,67.09 251.58,28.4 251.58,35.92 238.72,78.37 225.85,100.96 212.99,135.73 200.13,157.88 187.27,170.77 
		174.4,171.72 161.54,180.31 148.68,180.38 135.82,185.19 122.95,189.3 110.09,190.66 97.23,191.71 84.37,193.61 71.5,193.61 
		58.64,193.61 	"/>
	<polygon clip-path="url(#SVGID_2_)" fill="#984EA3" points="45.78,191.9 58.64,192.91 71.5,191.41 84.37,189.44 97.23,184.76 
		110.09,182.92 122.95,182.5 135.82,175.92 148.68,169.63 161.54,168.74 174.4,155.54 187.27,152.58 200.13,138.64 212.99,114.62 
		225.85,76.25 238.72,47.51 251.58,3.99 251.58,28.4 238.72,67.09 225.85,91.15 212.99,129.24 200.13,153.59 187.27,164.83 
		174.4,166.2 161.54,177.81 148.68,178.99 135.82,184.21 122.95,188.61 110.09,188.82 97.23,188.76 84.37,192.62 71.5,193.61 
		58.64,193.61 45.78,193.61 	"/>
</g>
<line fill="none" stroke="#000000" stroke-width="1.07" stroke-linecap="square" stroke-linejoin="round" stroke-miterlimit="10" x1="35.49" y1="193.61" x2="35.49" y2="3.99"/>
<text transform="matrix(1 0 0 1 28.4199 195.7598)" font-family="'Lato-Regular'" font-size="6">0</text>
<text transform="matrix(1 0 0 1 14.5 97.3999)" font-family="'Lato-Regular'" font-size="6">20000</text>
<text transform="matrix(1 0 0 1 14.5 56.6499)" font-family="'Lato-Regular'" font-size="6">40000</text>
<text transform="matrix(1 0 0 1 14.5 25.3901)" font-family="'Lato-Regular'" font-size="6">60000</text>
<line fill="none" stroke="#000000" stroke-width="1.07" stroke-linejoin="round" stroke-miterlimit="10" x1="33.5" y1="193.61" x2="35.49" y2="193.61"/>
<line fill="none" stroke="#000000" stroke-width="1.07" stroke-linejoin="round" stroke-miterlimit="10" x1="33.5" y1="95.24" x2="35.49" y2="95.24"/>
<line fill="none" stroke="#000000" stroke-width="1.07" stroke-linejoin="round" stroke-miterlimit="10" x1="33.5" y1="54.5" x2="35.49" y2="54.5"/>
<line fill="none" stroke="#000000" stroke-width="1.07" stroke-linejoin="round" stroke-miterlimit="10" x1="33.5" y1="23.24" x2="35.49" y2="23.24"/>
<line fill="none" stroke="#000000" stroke-width="1.07" stroke-linejoin="round" stroke-miterlimit="10" x1="58.64" y1="195.6" x2="58.64" y2="193.61"/>
<line fill="none" stroke="#000000" stroke-width="1.07" stroke-linejoin="round" stroke-miterlimit="10" x1="122.95" y1="195.6" x2="122.95" y2="193.61"/>
<line fill="none" stroke="#000000" stroke-width="1.07" stroke-linejoin="round" stroke-miterlimit="10" x1="187.27" y1="195.6" x2="187.27" y2="193.61"/>
<line fill="none" stroke="#000000" stroke-width="1.07" stroke-linejoin="round" stroke-miterlimit="10" x1="251.58" y1="195.6" x2="251.58" y2="193.61"/>
<text transform="matrix(1 0 0 1 51.6802 201.5)" font-family="'Lato-Regular'" font-size="6">2000</text>
<text transform="matrix(1 0 0 1 115.9902 201.5)" font-family="'Lato-Regular'" font-size="6">2005</text>
<text transform="matrix(1 0 0 1 180.3096 201.5)" font-family="'Lato-Regular'" font-size="6">2010</text>
<text transform="matrix(1 0 0 1 244.6201 201.5)" font-family="'Lato-Regular'" font-size="6">2015</text>
<text transform="matrix(1 0 0 1 140.9502 210.4199)"><tspan x="0" y="0" font-family="'Lato-Regular'" font-size="8">y</tspan><tspan x="3.992" y="0" font-family="'Lato-Regular'" font-size="8">ear</tspan></text>
<text transform="matrix(0 -1 1 0 11.3193 150.0195)" font-family="'Lato-Regular'" font-size="8"># published genomes at NCBI</text>
<rect x="270.37" y="54.96" fill="#FFFFFF" width="77.14" height="87.68"/>
<text transform="matrix(1 0 0 1 274.6299 64.9399)" font-family="'Lato-Regular'" font-size="8">Sequence quality</text>
<rect x="274.63" y="69.26" fill="#FFFFFF" width="17.28" height="17.28"/>
<rect x="274.63" y="69.26" fill="none" stroke="#FFFFFF" stroke-width="1.07" stroke-linecap="round" stroke-linejoin="round" stroke-miterlimit="10" width="17.28" height="17.28"/>
<rect x="275.33" y="69.98" fill="#E41A1C" width="15.86" height="15.86"/>
<rect x="274.63" y="86.54" fill="#FFFFFF" width="17.28" height="17.28"/>
<rect x="274.63" y="86.54" fill="none" stroke="#FFFFFF" stroke-width="1.07" stroke-linecap="round" stroke-linejoin="round" stroke-miterlimit="10" width="17.28" height="17.28"/>
<rect x="275.33" y="87.26" fill="#377EB8" width="15.86" height="15.86"/>
<rect x="274.63" y="103.82" fill="#FFFFFF" width="17.28" height="17.28"/>
<rect x="274.63" y="103.82" fill="none" stroke="#FFFFFF" stroke-width="1.07" stroke-linecap="round" stroke-linejoin="round" stroke-miterlimit="10" width="17.28" height="17.28"/>
<rect x="275.33" y="104.54" fill="#4DAF4A" width="15.86" height="15.86"/>
<rect x="274.63" y="121.1" fill="#FFFFFF" width="17.28" height="17.28"/>
<rect x="274.63" y="121.1" fill="none" stroke="#FFFFFF" stroke-width="1.07" stroke-linecap="round" stroke-linejoin="round" stroke-miterlimit="10" width="17.28" height="17.28"/>
<rect x="275.33" y="121.82" fill="#984EA3" width="15.86" height="15.859"/>
<text transform="matrix(1 0 0 1 294.0703 80.0601)" font-family="'Lato-Regular'" font-size="6">Contig</text>
<text transform="matrix(1 0 0 1 294.0703 97.3398)" font-family="'Lato-Regular'" font-size="6">Scaffold</text>
<text transform="matrix(1 0 0 1 294.0703 114.6201)" font-family="'Lato-Regular'" font-size="6">Chromosome</text>
<text transform="matrix(1 0 0 1 294.0703 131.9004)" font-family="'Lato-Regular'" font-size="6">Complete Genome</text>
</svg>
