<?xml version="1.0" encoding="utf-8"?>
<!-- Generator: Adobe Illustrator 15.0.2, SVG Export Plug-In . SVG Version: 6.00 Build 0)  -->
<!DOCTYPE svg PUBLIC "-//W3C//DTD SVG 1.1//EN" "http://www.w3.org/Graphics/SVG/1.1/DTD/svg11.dtd">
<svg version="1.1" id="Layer_1" xmlns="http://www.w3.org/2000/svg" xmlns:xlink="http://www.w3.org/1999/xlink" x="0px" y="0px"
	 width="399.6px" height="540px" viewBox="0 0 399.6 540" enable-background="new 0 0 399.6 540" xml:space="preserve">
<rect fill="none" width="399.6" height="540"/>
<g>
	<g>
		
			<line fill="none" stroke="#000000" stroke-linecap="round" stroke-miterlimit="10" x1="199.8" y1="172.981" x2="199.8" y2="253.675"/>
		<g>
			<polygon points="195.71,250.362 196.442,249.68 199.799,253.292 203.156,249.68 203.889,250.362 199.799,254.76 			"/>
		</g>
	</g>
</g>
<linearGradient id="SVGID_1_" gradientUnits="userSpaceOnUse" x1="0" y1="213.2026" x2="399.5996" y2="213.2026">
	<stop  offset="0" style="stop-color:#FFFFFF"/>
	<stop  offset="0.1884" style="stop-color:#FBFBFB"/>
	<stop  offset="0.3833" style="stop-color:#EEEEEE"/>
	<stop  offset="0.4" style="stop-color:#EDEDED"/>
	<stop  offset="0.6" style="stop-color:#EDEDED"/>
	<stop  offset="0.6167" style="stop-color:#EEEEEE"/>
	<stop  offset="0.8116" style="stop-color:#FBFBFB"/>
	<stop  offset="1" style="stop-color:#FFFFFF"/>
</linearGradient>
<rect y="194.206" fill="url(#SVGID_1_)" width="399.6" height="37.994"/>
<circle fill="#FFFFFF" stroke="#000000" stroke-miterlimit="10" cx="109.255" cy="65.628" r="36.667"/>
<circle fill="#FFFFFF" stroke="#000000" stroke-miterlimit="10" cx="43.634" cy="133.961" r="36.667"/>
<circle fill="#FFFFFF" stroke="#000000" stroke-miterlimit="10" cx="355.334" cy="133.961" r="36.667"/>
<circle fill="#FFFFFF" stroke="#000000" stroke-miterlimit="10" cx="199.8" cy="40.962" r="36.666"/>
<circle fill="#FFFFFF" stroke="#000000" stroke-miterlimit="10" cx="289.707" cy="65.628" r="36.667"/>
<g>
	<path fill="#E41D1E" d="M65.865,108.115c-0.445,0-0.867-0.149-1.187-0.421c-0.035-0.03-0.873-0.738-2.224-1.651
		c-1.794-1.214-3.718-2.258-5.717-3.104c-2.026-0.857-4.151-1.518-6.316-1.961c-1.709-0.35-3.038-0.463-3.094-0.468
		c-0.918-0.077-1.694-0.921-1.694-1.842v-2.686c0-0.84,0.652-1.499,1.485-1.499c0.042,0,0.085,0.002,0.129,0.005
		c0.022,0.001,2.274,0.181,4.376,0.611c2.551,0.523,5.058,1.301,7.45,2.312c2.354,0.997,4.621,2.228,6.738,3.658
		c1.668,1.127,3.163,2.407,3.178,2.42c0.329,0.282,0.519,0.667,0.535,1.082c0.016,0.415-0.145,0.813-0.451,1.12l-1.899,1.899
		C66.842,107.924,66.365,108.115,65.865,108.115L65.865,108.115z"/>
	<path fill="#FFFFFF" d="M47.119,94.984c0.03,0,0.06,0.001,0.09,0.004c0.022,0.001,2.245,0.179,4.315,0.602
		c2.519,0.516,4.994,1.285,7.356,2.283c2.324,0.984,4.563,2.199,6.653,3.612c1.641,1.108,3.117,2.373,3.132,2.385
		c0.222,0.191,0.35,0.447,0.361,0.722c0.01,0.274-0.098,0.54-0.305,0.747l-1.899,1.899c-0.24,0.24-0.588,0.377-0.956,0.377
		c-0.327,0-0.633-0.107-0.864-0.303c-0.036-0.031-0.894-0.756-2.267-1.684c-1.821-1.231-3.773-2.291-5.802-3.15
		c-2.057-0.871-4.213-1.54-6.411-1.99c-1.737-0.355-3.096-0.472-3.152-0.477c-0.67-0.056-1.236-0.671-1.236-1.344v-2.686
		C46.134,95.413,46.558,94.984,47.119,94.984 M47.119,93.984c-1.106,0-1.985,0.867-1.985,1.999v2.686
		c0,1.188,0.969,2.241,2.152,2.34c0,0,1.336,0.112,3.035,0.459c2.13,0.437,4.224,1.086,6.222,1.932
		c1.966,0.832,3.861,1.86,5.632,3.058c1.344,0.908,2.18,1.618,2.18,1.618c0.426,0.362,0.969,0.541,1.511,0.541
		c0.609,0,1.219-0.226,1.663-0.67l1.899-1.899c0.84-0.84,0.79-2.161-0.111-2.935c0,0-1.512-1.299-3.224-2.455
		c-2.145-1.449-4.44-2.695-6.823-3.704c-2.423-1.024-4.962-1.812-7.545-2.342c-2.159-0.441-4.438-0.62-4.438-0.62
		C47.23,93.986,47.175,93.984,47.119,93.984L47.119,93.984z"/>
</g>
<g>
	<path fill="#7EAF7C" d="M5.655,131.961c-0.434,0-0.828-0.167-1.109-0.472c-0.281-0.305-0.417-0.71-0.384-1.142
		c0.001-0.022,0.181-2.274,0.611-4.376c0.522-2.551,1.3-5.058,2.312-7.45c0.996-2.353,2.226-4.62,3.658-6.739
		c1.127-1.668,2.407-3.162,2.419-3.177c0.341-0.397,0.802-0.634,1.234-0.634c0.19,0,0.465,0.048,0.692,0.274l2.477,2.477
		c0.488,0.488,0.396,1.494-0.2,2.195c-0.029,0.035-0.737,0.872-1.65,2.224c-1.214,1.797-2.258,3.721-3.103,5.717
		c-0.859,2.03-1.519,4.155-1.961,6.316c-0.35,1.708-0.463,3.038-0.468,3.094c-0.077,0.918-0.921,1.694-1.842,1.694H5.655z"/>
	<path fill="#FFFFFF" d="M14.397,108.47c0.142,0,0.252,0.042,0.338,0.128l0.102,0.102l2.375,2.375
		c0.266,0.266,0.224,0.987-0.227,1.518c-0.03,0.036-0.755,0.893-1.684,2.268c-1.232,1.824-2.292,3.776-3.149,5.802
		c-0.872,2.061-1.542,4.217-1.99,6.411c-0.355,1.737-0.472,3.096-0.477,3.152c-0.056,0.67-0.671,1.236-1.344,1.236H5.655
		c-0.292,0-0.556-0.111-0.742-0.312c-0.186-0.201-0.275-0.472-0.252-0.764c0.001-0.022,0.179-2.245,0.602-4.315
		c0.516-2.519,1.284-4.994,2.283-7.356c0.983-2.323,2.198-4.562,3.612-6.654c1.109-1.641,2.372-3.117,2.385-3.131
		C13.79,108.642,14.109,108.47,14.397,108.47 M14.397,107.47c-0.558,0-1.158,0.279-1.613,0.809c0,0-1.298,1.511-2.455,3.223
		c-1.45,2.146-2.696,4.442-3.704,6.824c-1.025,2.423-1.813,4.962-2.342,7.545c-0.442,2.159-0.62,4.438-0.62,4.438
		c-0.093,1.184,0.804,2.153,1.992,2.153h2.686c1.188,0,2.241-0.969,2.34-2.152c0,0,0.112-1.336,0.459-3.035
		c0.436-2.13,1.086-4.223,1.932-6.222c0.831-1.964,1.859-3.859,3.057-5.632c0.909-1.345,1.618-2.18,1.618-2.18
		c0.769-0.906,0.846-2.198,0.172-2.873s-1.789-1.789-2.477-2.477C15.159,107.607,14.789,107.47,14.397,107.47L14.397,107.47z"/>
</g>
<g>
	<path fill="#91779C" d="M21.256,108.205c-0.354,0-0.661-0.111-0.862-0.312l-2.477-2.477c-0.24-0.24-0.281-0.533-0.274-0.737
		c0.016-0.423,0.247-0.857,0.633-1.188c0.015-0.013,1.51-1.293,3.178-2.42c2.118-1.432,4.385-2.663,6.739-3.658
		c2.394-1.012,4.9-1.79,7.45-2.312c2.105-0.43,4.354-0.609,4.377-0.611c0.043-0.003,0.086-0.005,0.129-0.005
		c0.833,0,1.485,0.658,1.485,1.499v2.686c0,0.921-0.776,1.765-1.694,1.842c-0.056,0.004-1.386,0.118-3.095,0.468
		c-2.165,0.443-4.289,1.103-6.315,1.961c-1.996,0.844-3.919,1.889-5.717,3.104c-1.352,0.913-2.188,1.621-2.223,1.65
		C22.206,108.019,21.72,108.205,21.256,108.205L21.256,108.205z"/>
	<path fill="#FFFFFF" d="M40.148,94.984c0.562,0,0.985,0.429,0.985,0.999v2.686c0,0.672-0.566,1.288-1.236,1.344
		c-0.057,0.005-1.416,0.121-3.153,0.477c-2.196,0.45-4.353,1.12-6.41,1.99c-2.025,0.857-3.978,1.917-5.803,3.15
		c-1.374,0.928-2.23,1.653-2.266,1.683c-0.294,0.25-0.663,0.394-1.01,0.394c-0.221,0-0.402-0.059-0.509-0.166l-2.477-2.477
		c-0.09-0.09-0.133-0.212-0.127-0.364c0.01-0.281,0.182-0.59,0.459-0.828c0.015-0.013,1.49-1.276,3.132-2.385
		c2.091-1.414,4.33-2.629,6.653-3.612c2.363-0.999,4.837-1.767,7.354-2.283c2.071-0.423,4.294-0.601,4.316-0.603
		C40.089,94.985,40.119,94.984,40.148,94.984 M40.148,93.984c-0.056,0-0.111,0.002-0.168,0.007c0,0-2.278,0.178-4.438,0.62
		c-2.583,0.529-5.121,1.317-7.544,2.342c-2.382,1.008-4.678,2.254-6.824,3.704c-1.713,1.157-3.224,2.455-3.224,2.455
		c-0.901,0.774-1.076,1.97-0.387,2.658c0.688,0.688,1.803,1.803,2.477,2.477c0.308,0.308,0.746,0.459,1.216,0.459
		c0.559,0,1.166-0.213,1.657-0.631c0,0,0.835-0.709,2.179-1.617c1.773-1.198,3.668-2.227,5.632-3.058
		c1.998-0.846,4.091-1.495,6.221-1.932c1.7-0.348,3.036-0.459,3.036-0.459c1.184-0.099,2.152-1.152,2.152-2.34v-2.686
		C42.134,94.851,41.255,93.984,40.148,93.984L40.148,93.984z"/>
</g>
<g>
	<path fill="#789CB9" d="M14.397,159.953c-0.432,0-0.893-0.237-1.234-0.634c-0.013-0.015-1.293-1.51-2.42-3.178
		c-1.432-2.119-2.663-4.387-3.658-6.739c-1.012-2.394-1.791-4.9-2.312-7.449c-0.431-2.105-0.609-4.355-0.611-4.377
		c-0.034-0.432,0.103-0.837,0.384-1.142c0.282-0.305,0.676-0.472,1.109-0.472h2.686c0.921,0,1.765,0.776,1.842,1.694
		c0.004,0.056,0.118,1.386,0.468,3.095c0.443,2.165,1.103,4.289,1.961,6.315c0.843,1.994,1.887,3.917,3.103,5.718
		c0.913,1.351,1.621,2.188,1.65,2.223c0.596,0.702,0.688,1.708,0.2,2.195l-2.477,2.477
		C14.862,159.905,14.587,159.953,14.397,159.953L14.397,159.953z"/>
	<path fill="#FFFFFF" d="M8.341,136.461c0.672,0,1.288,0.566,1.344,1.236c0.005,0.057,0.121,1.416,0.477,3.153
		c0.45,2.196,1.12,4.353,1.99,6.41c0.856,2.023,1.916,3.976,3.149,5.803c0.928,1.373,1.653,2.23,1.684,2.267
		c0.451,0.531,0.493,1.252,0.228,1.518l-2.477,2.477c-0.086,0.086-0.197,0.128-0.338,0.128c-0.288,0-0.607-0.172-0.854-0.459
		c-0.013-0.015-1.276-1.49-2.385-3.132c-1.414-2.092-2.629-4.331-3.611-6.654c-1-2.363-1.768-4.837-2.283-7.354
		c-0.423-2.071-0.601-4.294-0.602-4.316c-0.023-0.292,0.067-0.562,0.252-0.764c0.186-0.201,0.45-0.312,0.742-0.312H8.341
		 M8.341,135.461H5.655c-1.188,0-2.084,0.969-1.992,2.153c0,0,0.178,2.278,0.62,4.438c0.529,2.583,1.317,5.121,2.342,7.544
		c1.008,2.383,2.254,4.679,3.704,6.824c1.157,1.713,2.455,3.224,2.455,3.224c0.455,0.53,1.056,0.808,1.613,0.808
		c0.391,0,0.761-0.137,1.045-0.421c0.688-0.688,1.803-1.803,2.477-2.477s0.597-1.967-0.172-2.873c0,0-0.709-0.835-1.617-2.179
		c-1.198-1.773-2.226-3.668-3.057-5.633c-0.846-1.998-1.495-4.091-1.932-6.221c-0.348-1.699-0.459-3.036-0.459-3.036
		C10.582,136.43,9.529,135.461,8.341,135.461L8.341,135.461z"/>
</g>
<g>
	<path fill="#4EAF4A" d="M72.968,159.854c-0.395,0-0.773-0.161-1.064-0.452l-1.899-1.899c-0.651-0.651-0.698-1.795-0.102-2.497
		c0.03-0.035,0.737-0.872,1.651-2.224c1.217-1.804,2.261-3.727,3.102-5.716c0.858-2.024,1.518-4.15,1.962-6.317
		c0.35-1.708,0.463-3.038,0.468-3.094c0.077-0.918,0.921-1.694,1.842-1.694h2.686c0.434,0,0.828,0.167,1.109,0.472
		c0.281,0.305,0.417,0.71,0.384,1.142c-0.002,0.022-0.181,2.275-0.611,4.376c-0.522,2.551-1.3,5.058-2.312,7.45
		c-0.995,2.352-2.225,4.619-3.658,6.739c-1.126,1.667-2.407,3.163-2.419,3.178C73.809,159.664,73.405,159.854,72.968,159.854z"/>
	<path fill="#FFFFFF" d="M81.612,136.461c0.292,0,0.556,0.111,0.742,0.312c0.186,0.201,0.275,0.472,0.252,0.764
		c-0.001,0.022-0.179,2.246-0.602,4.315c-0.515,2.518-1.284,4.993-2.283,7.355c-0.982,2.322-2.197,4.561-3.612,6.654
		c-1.108,1.642-2.372,3.117-2.384,3.132c-0.2,0.233-0.469,0.361-0.758,0.361c-0.261,0-0.514-0.108-0.711-0.306l-1.899-1.899
		c-0.475-0.475-0.509-1.309-0.074-1.82c0.03-0.036,0.755-0.893,1.685-2.268c1.235-1.83,2.294-3.782,3.147-5.8
		c0.871-2.055,1.541-4.212,1.991-6.412c0.355-1.736,0.472-3.096,0.477-3.152c0.056-0.67,0.671-1.236,1.344-1.236H81.612
		 M81.612,135.461h-2.686c-1.188,0-2.241,0.969-2.34,2.152c0,0-0.112,1.337-0.459,3.035c-0.437,2.131-1.086,4.225-1.933,6.223
		c-0.829,1.961-1.857,3.855-3.056,5.631c-0.909,1.345-1.618,2.18-1.618,2.18c-0.769,0.906-0.71,2.334,0.13,3.174l1.899,1.899
		c0.4,0.4,0.91,0.599,1.418,0.599c0.557,0,1.112-0.238,1.517-0.71c0,0,1.298-1.511,2.454-3.224c1.451-2.147,2.697-4.443,3.704-6.824
		c1.025-2.423,1.813-4.962,2.342-7.545c0.441-2.158,0.62-4.438,0.62-4.438C83.697,136.43,82.8,135.461,81.612,135.461
		L81.612,135.461z"/>
</g>
<g>
	<path fill="#377EB9" d="M78.927,131.961c-0.921,0-1.765-0.776-1.842-1.694c-0.004-0.056-0.118-1.386-0.468-3.095
		c-0.443-2.163-1.103-4.287-1.961-6.314c-0.843-1.993-1.887-3.917-3.103-5.718c-0.915-1.352-1.621-2.188-1.651-2.224
		c-0.597-0.702-0.55-1.845,0.102-2.497l1.899-1.899c0.292-0.292,0.67-0.452,1.064-0.452c0.437,0,0.841,0.19,1.137,0.536
		c0.013,0.015,1.293,1.51,2.419,3.178c1.433,2.119,2.664,4.386,3.658,6.738c1.011,2.39,1.789,4.896,2.312,7.45
		c0.43,2.102,0.609,4.354,0.611,4.377c0.034,0.432-0.103,0.837-0.384,1.142c-0.282,0.305-0.676,0.472-1.109,0.472H78.927z"/>
	<path fill="#FFFFFF" d="M72.968,108.568c0.289,0,0.558,0.128,0.758,0.361c0.013,0.015,1.276,1.49,2.384,3.132
		c1.415,2.092,2.629,4.33,3.612,6.653c0.998,2.359,1.766,4.834,2.283,7.354c0.423,2.07,0.601,4.294,0.602,4.316
		c0.023,0.292-0.067,0.562-0.252,0.764c-0.186,0.201-0.45,0.312-0.742,0.312h-2.686c-0.672,0-1.288-0.566-1.344-1.236
		c-0.005-0.057-0.121-1.416-0.477-3.153c-0.45-2.194-1.119-4.351-1.99-6.409c-0.855-2.022-1.915-3.975-3.149-5.803
		c-0.929-1.374-1.653-2.231-1.684-2.267c-0.435-0.511-0.4-1.345,0.074-1.819l1.899-1.899
		C72.454,108.677,72.707,108.568,72.968,108.568 M72.968,107.568c-0.508,0-1.018,0.198-1.418,0.599l-1.899,1.899
		c-0.84,0.84-0.898,2.269-0.129,3.174c0,0,0.708,0.835,1.618,2.18c1.198,1.775,2.227,3.671,3.057,5.633
		c0.845,1.996,1.495,4.09,1.932,6.22c0.348,1.699,0.459,3.036,0.459,3.036c0.099,1.184,1.152,2.152,2.34,2.152h2.686
		c1.188,0,2.084-0.969,1.992-2.153c0,0-0.178-2.279-0.62-4.438c-0.529-2.582-1.316-5.12-2.342-7.544
		c-1.007-2.381-2.253-4.677-3.704-6.823c-1.156-1.713-2.454-3.224-2.454-3.224C74.08,107.807,73.525,107.568,72.968,107.568
		L72.968,107.568z"/>
</g>
<g>
	<path fill="#86519C" d="M47.12,173.438c-0.833,0-1.486-0.658-1.486-1.499v-2.686c0-0.921,0.776-1.765,1.694-1.842
		c0.056-0.004,1.386-0.118,3.095-0.468c2.165-0.443,4.29-1.104,6.314-1.961c1.994-0.842,3.917-1.886,5.718-3.103
		c1.351-0.913,2.188-1.621,2.224-1.65c0.32-0.272,0.742-0.422,1.187-0.422c0.5,0,0.977,0.191,1.31,0.523l1.899,1.899
		c0.307,0.307,0.467,0.705,0.451,1.12c-0.016,0.416-0.206,0.8-0.535,1.082c-0.015,0.013-1.511,1.294-3.178,2.42
		c-2.118,1.431-4.384,2.662-6.737,3.657c-2.395,1.013-4.901,1.791-7.45,2.312c-2.105,0.431-4.355,0.61-4.377,0.611L47.12,173.438z"
		/>
	<path fill="#FFFFFF" d="M65.865,160.308c0.368,0,0.716,0.137,0.956,0.377l1.899,1.899c0.207,0.207,0.315,0.473,0.305,0.747
		c-0.011,0.275-0.139,0.531-0.361,0.722c-0.015,0.012-1.487,1.274-3.132,2.385c-2.091,1.413-4.329,2.628-6.652,3.611
		c-2.364,1-4.839,1.768-7.356,2.283c-2.071,0.424-4.293,0.601-4.315,0.603c-0.03,0.002-0.06,0.003-0.089,0.003
		c-0.562,0-0.986-0.429-0.986-0.999v-2.686c0-0.672,0.566-1.288,1.236-1.344c0.057-0.005,1.416-0.121,3.153-0.477
		c2.197-0.45,4.354-1.12,6.408-1.99c2.024-0.855,3.977-1.915,5.804-3.149c1.373-0.928,2.231-1.653,2.267-1.684
		C65.232,160.415,65.539,160.308,65.865,160.308 M65.865,159.308c-0.542,0-1.084,0.178-1.511,0.541c0,0-0.836,0.709-2.18,1.618
		c-1.771,1.196-3.666,2.226-5.633,3.057c-1.997,0.846-4.09,1.495-6.22,1.932c-1.7,0.348-3.036,0.459-3.036,0.459
		c-1.184,0.099-2.152,1.152-2.152,2.34v2.686c0,1.131,0.879,1.999,1.986,1.999c0.055,0,0.111-0.002,0.167-0.006
		c0,0,2.278-0.178,4.438-0.62c2.583-0.528,5.121-1.316,7.545-2.342c2.382-1.008,4.678-2.254,6.822-3.703
		c1.712-1.156,3.224-2.455,3.224-2.455c0.901-0.774,0.951-2.095,0.111-2.935l-1.899-1.899
		C67.084,159.533,66.475,159.308,65.865,159.308L65.865,159.308z"/>
</g>
<g>
	<path fill="#E48081" d="M40.02,173.433c-0.022-0.001-2.274-0.181-4.376-0.611c-2.551-0.521-5.058-1.3-7.451-2.312
		c-2.353-0.996-4.62-2.226-6.739-3.658c-1.669-1.127-3.162-2.407-3.177-2.419c-0.386-0.332-0.617-0.765-0.633-1.188
		c-0.007-0.204,0.034-0.497,0.274-0.737l2.477-2.477c0.202-0.202,0.508-0.312,0.862-0.312c0.464,0,0.95,0.187,1.333,0.513
		c0.035,0.029,0.872,0.738,2.224,1.651c1.798,1.215,3.722,2.259,5.717,3.103c2.031,0.859,4.156,1.52,6.316,1.961
		c1.708,0.35,3.038,0.463,3.094,0.468c0.918,0.077,1.694,0.921,1.694,1.842v2.686c0,0.412-0.153,0.792-0.432,1.07
		c-0.276,0.276-0.651,0.428-1.055,0.428L40.02,173.433z"/>
	<path fill="#FFFFFF" d="M21.255,160.217c0.347,0,0.715,0.144,1.01,0.394c0.036,0.03,0.894,0.756,2.268,1.684
		c1.825,1.233,3.777,2.292,5.802,3.149c2.062,0.873,4.219,1.542,6.411,1.99c1.737,0.355,3.096,0.472,3.152,0.477
		c0.67,0.056,1.236,0.671,1.236,1.344v2.686c0,0.569-0.424,0.999-0.986,0.999c-0.029,0-0.059-0.001-0.089-0.003
		c-0.022-0.001-2.245-0.179-4.315-0.603c-2.518-0.515-4.993-1.283-7.355-2.283c-2.323-0.983-4.562-2.198-6.654-3.612
		c-1.641-1.108-3.117-2.372-3.131-2.384c-0.277-0.238-0.449-0.547-0.459-0.828c-0.006-0.151,0.037-0.274,0.128-0.365l2.41-2.411
		l0.066-0.066C20.854,160.276,21.035,160.217,21.255,160.217 M21.255,159.217c-0.47,0-0.907,0.151-1.215,0.459
		c-0.674,0.674-1.789,1.789-2.477,2.477c-0.688,0.688-0.514,1.885,0.387,2.659c0,0,1.511,1.298,3.223,2.454
		c2.146,1.45,4.442,2.696,6.824,3.704c2.423,1.025,4.961,1.813,7.545,2.342c2.159,0.442,4.438,0.62,4.438,0.62
		c0.056,0.004,0.112,0.006,0.167,0.006c1.107,0,1.986-0.867,1.986-1.999v-2.686c0-1.188-0.969-2.241-2.152-2.34
		c0,0-1.336-0.112-3.035-0.459c-2.13-0.436-4.223-1.086-6.222-1.932c-1.964-0.831-3.859-1.859-5.632-3.057
		c-1.345-0.908-2.18-1.618-2.18-1.618C22.42,159.431,21.814,159.217,21.255,159.217L21.255,159.217z"/>
</g>
<g>
	<path fill="#E41D1E" d="M131.486,39.782c-0.445,0-0.867-0.149-1.187-0.421c-0.035-0.03-0.873-0.738-2.224-1.651
		c-1.794-1.214-3.718-2.258-5.717-3.104c-2.026-0.857-4.151-1.518-6.316-1.961c-1.709-0.35-3.038-0.463-3.094-0.468
		c-0.918-0.077-1.694-0.921-1.694-1.842v-2.686c0-0.84,0.652-1.499,1.485-1.499c0.042,0,0.085,0.002,0.129,0.005
		c0.022,0.001,2.274,0.181,4.376,0.611c2.551,0.523,5.058,1.301,7.45,2.312c2.354,0.997,4.621,2.228,6.738,3.658
		c1.668,1.127,3.163,2.407,3.178,2.42c0.329,0.282,0.519,0.667,0.535,1.082c0.016,0.415-0.145,0.813-0.451,1.12l-1.899,1.899
		C132.463,39.591,131.986,39.782,131.486,39.782L131.486,39.782z"/>
	<path fill="#FFFFFF" d="M112.74,26.651c0.03,0,0.06,0.001,0.09,0.004c0.022,0.001,2.245,0.179,4.315,0.602
		c2.519,0.516,4.994,1.285,7.356,2.283c2.324,0.984,4.563,2.199,6.653,3.612c1.641,1.108,3.117,2.373,3.132,2.385
		c0.222,0.191,0.35,0.447,0.361,0.722c0.01,0.274-0.098,0.54-0.305,0.747l-1.899,1.899c-0.24,0.24-0.588,0.377-0.956,0.377
		c-0.327,0-0.633-0.107-0.864-0.303c-0.036-0.031-0.894-0.756-2.267-1.684c-1.821-1.231-3.773-2.291-5.802-3.15
		c-2.057-0.871-4.213-1.54-6.411-1.99c-1.737-0.355-3.096-0.472-3.152-0.477c-0.67-0.056-1.236-0.671-1.236-1.344v-2.686
		C111.755,27.08,112.179,26.651,112.74,26.651 M112.74,25.651c-1.106,0-1.985,0.867-1.985,1.999v2.686
		c0,1.188,0.969,2.241,2.152,2.34c0,0,1.336,0.112,3.035,0.459c2.13,0.437,4.224,1.086,6.222,1.932
		c1.966,0.832,3.861,1.86,5.632,3.058c1.344,0.908,2.18,1.618,2.18,1.618c0.426,0.362,0.969,0.541,1.511,0.541
		c0.609,0,1.219-0.226,1.663-0.67l1.899-1.899c0.84-0.84,0.79-2.161-0.111-2.935c0,0-1.512-1.299-3.224-2.455
		c-2.145-1.449-4.44-2.695-6.823-3.704c-2.423-1.024-4.962-1.812-7.545-2.342c-2.159-0.441-4.438-0.62-4.438-0.62
		C112.852,25.653,112.796,25.651,112.74,25.651L112.74,25.651z"/>
</g>
<g>
	<path fill="#789CB9" d="M71.276,63.628c-0.434,0-0.828-0.167-1.109-0.472c-0.281-0.305-0.417-0.71-0.384-1.142
		c0.001-0.022,0.181-2.274,0.611-4.376c0.522-2.551,1.3-5.058,2.312-7.45c0.996-2.353,2.226-4.62,3.658-6.739
		c1.127-1.668,2.407-3.162,2.419-3.177c0.341-0.397,0.802-0.634,1.234-0.634c0.19,0,0.465,0.048,0.692,0.274l2.477,2.477
		c0.488,0.488,0.396,1.494-0.2,2.195c-0.029,0.035-0.737,0.872-1.65,2.224c-1.214,1.797-2.258,3.721-3.103,5.717
		c-0.859,2.03-1.519,4.155-1.961,6.316c-0.35,1.708-0.463,3.038-0.468,3.094c-0.077,0.918-0.921,1.694-1.842,1.694H71.276z"/>
	<path fill="#FFFFFF" d="M80.018,40.137c0.142,0,0.252,0.042,0.338,0.128l0.102,0.102l2.375,2.375
		c0.266,0.266,0.224,0.987-0.227,1.518c-0.03,0.036-0.755,0.893-1.684,2.268c-1.232,1.824-2.292,3.776-3.149,5.802
		c-0.872,2.061-1.542,4.217-1.99,6.411c-0.355,1.737-0.472,3.096-0.477,3.152c-0.056,0.67-0.671,1.236-1.344,1.236h-2.686
		c-0.292,0-0.556-0.111-0.742-0.312c-0.186-0.201-0.275-0.472-0.252-0.764c0.001-0.022,0.179-2.245,0.602-4.315
		c0.516-2.519,1.284-4.994,2.283-7.356c0.983-2.323,2.198-4.562,3.612-6.654c1.109-1.641,2.372-3.117,2.385-3.131
		C79.411,40.309,79.73,40.137,80.018,40.137 M80.018,39.137c-0.558,0-1.158,0.279-1.613,0.809c0,0-1.298,1.511-2.455,3.223
		c-1.45,2.146-2.696,4.442-3.704,6.824c-1.025,2.423-1.813,4.962-2.342,7.545c-0.442,2.159-0.62,4.438-0.62,4.438
		c-0.093,1.184,0.804,2.153,1.992,2.153h2.686c1.188,0,2.241-0.969,2.34-2.152c0,0,0.112-1.336,0.459-3.035
		c0.436-2.13,1.086-4.223,1.932-6.222c0.831-1.964,1.859-3.859,3.057-5.632c0.909-1.345,1.618-2.18,1.618-2.18
		c0.769-0.906,0.846-2.198,0.172-2.873s-1.789-1.789-2.477-2.477C80.78,39.274,80.41,39.137,80.018,39.137L80.018,39.137z"/>
</g>
<g>
	<path fill="#F0B885" d="M86.877,39.872c-0.354,0-0.661-0.111-0.862-0.312l-2.477-2.477c-0.24-0.24-0.281-0.533-0.274-0.737
		c0.016-0.423,0.247-0.857,0.633-1.188c0.015-0.013,1.51-1.293,3.178-2.42c2.118-1.432,4.385-2.663,6.739-3.658
		c2.394-1.012,4.9-1.79,7.45-2.312c2.105-0.43,4.354-0.609,4.377-0.611c0.043-0.003,0.086-0.005,0.129-0.005
		c0.833,0,1.485,0.658,1.485,1.499v2.686c0,0.921-0.776,1.765-1.694,1.842c-0.056,0.004-1.386,0.118-3.095,0.468
		c-2.165,0.443-4.289,1.103-6.315,1.961c-1.996,0.844-3.919,1.889-5.717,3.104c-1.352,0.913-2.188,1.621-2.223,1.65
		C87.827,39.686,87.341,39.872,86.877,39.872L86.877,39.872z"/>
	<path fill="#FFFFFF" d="M105.77,26.651c0.562,0,0.985,0.429,0.985,0.999v2.686c0,0.672-0.566,1.288-1.236,1.344
		c-0.057,0.005-1.416,0.121-3.153,0.477c-2.196,0.45-4.353,1.12-6.41,1.99c-2.025,0.857-3.978,1.917-5.803,3.15
		c-1.374,0.928-2.23,1.653-2.266,1.683c-0.294,0.25-0.663,0.394-1.01,0.394c-0.221,0-0.402-0.059-0.509-0.166l-2.477-2.477
		c-0.09-0.09-0.133-0.212-0.127-0.364c0.01-0.281,0.182-0.59,0.459-0.828c0.015-0.013,1.49-1.276,3.132-2.385
		c2.091-1.414,4.33-2.629,6.653-3.612c2.363-0.999,4.837-1.767,7.354-2.283c2.071-0.423,4.294-0.601,4.316-0.603
		C105.71,26.652,105.74,26.651,105.77,26.651 M105.77,25.651c-0.056,0-0.111,0.002-0.168,0.007c0,0-2.278,0.178-4.438,0.62
		c-2.583,0.529-5.121,1.317-7.544,2.342c-2.382,1.008-4.678,2.254-6.824,3.704c-1.713,1.157-3.224,2.455-3.224,2.455
		c-0.901,0.774-1.076,1.97-0.387,2.658c0.688,0.688,1.803,1.803,2.477,2.477c0.308,0.308,0.746,0.459,1.216,0.459
		c0.559,0,1.166-0.213,1.657-0.631c0,0,0.835-0.709,2.179-1.617c1.773-1.198,3.668-2.227,5.632-3.058
		c1.998-0.846,4.091-1.495,6.221-1.932c1.7-0.348,3.036-0.459,3.036-0.459c1.184-0.099,2.152-1.152,2.152-2.34v-2.686
		C107.755,26.518,106.876,25.651,105.77,25.651L105.77,25.651z"/>
</g>
<g>
	<path fill="#7EAF7C" d="M80.018,91.62c-0.432,0-0.893-0.237-1.234-0.634c-0.013-0.015-1.293-1.51-2.42-3.178
		c-1.432-2.119-2.663-4.387-3.658-6.739c-1.012-2.394-1.791-4.9-2.312-7.449c-0.431-2.105-0.609-4.355-0.611-4.377
		c-0.034-0.432,0.103-0.837,0.384-1.142c0.282-0.305,0.676-0.472,1.109-0.472h2.686c0.921,0,1.765,0.776,1.842,1.694
		c0.004,0.056,0.118,1.386,0.468,3.095c0.443,2.165,1.103,4.289,1.961,6.315c0.843,1.994,1.887,3.917,3.103,5.718
		c0.913,1.351,1.621,2.188,1.65,2.223c0.596,0.702,0.688,1.708,0.2,2.195l-2.477,2.477C80.483,91.572,80.208,91.62,80.018,91.62
		L80.018,91.62z"/>
	<path fill="#FFFFFF" d="M73.962,68.128c0.672,0,1.288,0.566,1.344,1.236c0.005,0.057,0.121,1.416,0.477,3.153
		c0.45,2.196,1.12,4.353,1.99,6.41c0.856,2.023,1.916,3.976,3.149,5.803c0.928,1.373,1.653,2.23,1.684,2.267
		c0.451,0.531,0.493,1.252,0.228,1.518l-2.477,2.477c-0.086,0.086-0.197,0.128-0.338,0.128c-0.288,0-0.607-0.172-0.854-0.459
		c-0.013-0.015-1.276-1.49-2.385-3.132c-1.414-2.092-2.629-4.331-3.611-6.654c-1-2.363-1.768-4.837-2.283-7.354
		c-0.423-2.071-0.601-4.294-0.602-4.316c-0.023-0.292,0.067-0.562,0.252-0.764c0.186-0.201,0.45-0.312,0.742-0.312H73.962
		 M73.962,67.128h-2.686c-1.188,0-2.084,0.969-1.992,2.153c0,0,0.178,2.278,0.62,4.438c0.529,2.583,1.317,5.121,2.342,7.544
		c1.008,2.383,2.254,4.679,3.704,6.824c1.157,1.713,2.455,3.224,2.455,3.224c0.455,0.53,1.056,0.808,1.613,0.808
		c0.391,0,0.761-0.137,1.045-0.421c0.688-0.688,1.803-1.803,2.477-2.477s0.597-1.967-0.172-2.873c0,0-0.709-0.835-1.617-2.179
		c-1.198-1.773-2.226-3.668-3.057-5.633c-0.846-1.998-1.495-4.091-1.932-6.221c-0.348-1.699-0.459-3.036-0.459-3.036
		C76.203,68.097,75.15,67.128,73.962,67.128L73.962,67.128z"/>
</g>
<g>
	<path fill="#4EAF4A" d="M138.589,91.521c-0.395,0-0.773-0.161-1.064-0.452l-1.899-1.899c-0.651-0.651-0.698-1.795-0.102-2.497
		c0.03-0.035,0.737-0.872,1.651-2.224c1.217-1.804,2.261-3.727,3.102-5.716c0.858-2.024,1.518-4.15,1.962-6.317
		c0.35-1.708,0.463-3.038,0.468-3.094c0.077-0.918,0.921-1.694,1.842-1.694h2.686c0.434,0,0.828,0.167,1.109,0.472
		c0.281,0.305,0.417,0.71,0.384,1.142c-0.002,0.022-0.181,2.275-0.611,4.376c-0.522,2.551-1.3,5.058-2.312,7.45
		c-0.995,2.352-2.225,4.619-3.658,6.739c-1.126,1.667-2.407,3.163-2.419,3.178C139.43,91.331,139.026,91.521,138.589,91.521z"/>
	<path fill="#FFFFFF" d="M147.233,68.128c0.292,0,0.556,0.111,0.742,0.312c0.186,0.201,0.275,0.472,0.252,0.764
		c-0.001,0.022-0.179,2.246-0.602,4.315c-0.515,2.518-1.284,4.993-2.283,7.355c-0.982,2.322-2.197,4.561-3.612,6.654
		c-1.108,1.642-2.372,3.117-2.384,3.132c-0.2,0.233-0.469,0.361-0.758,0.361c-0.261,0-0.514-0.108-0.711-0.306l-1.899-1.899
		c-0.475-0.475-0.509-1.309-0.074-1.82c0.03-0.036,0.755-0.893,1.685-2.268c1.235-1.83,2.294-3.782,3.147-5.8
		c0.871-2.055,1.541-4.212,1.991-6.412c0.355-1.736,0.472-3.096,0.477-3.152c0.056-0.67,0.671-1.236,1.344-1.236H147.233
		 M147.233,67.128h-2.686c-1.188,0-2.241,0.969-2.34,2.152c0,0-0.112,1.337-0.459,3.035c-0.437,2.131-1.086,4.225-1.933,6.223
		c-0.829,1.961-1.857,3.855-3.056,5.631c-0.909,1.345-1.618,2.18-1.618,2.18c-0.769,0.906-0.71,2.334,0.13,3.174l1.899,1.899
		c0.4,0.4,0.91,0.599,1.418,0.599c0.557,0,1.112-0.238,1.517-0.71c0,0,1.298-1.511,2.454-3.224c1.451-2.147,2.697-4.443,3.704-6.824
		c1.025-2.423,1.813-4.962,2.342-7.545c0.441-2.158,0.62-4.438,0.62-4.438C149.318,68.097,148.421,67.128,147.233,67.128
		L147.233,67.128z"/>
</g>
<g>
	<path fill="#377EB9" d="M144.548,63.628c-0.921,0-1.765-0.776-1.842-1.694c-0.004-0.056-0.118-1.386-0.468-3.095
		c-0.443-2.163-1.103-4.287-1.961-6.314c-0.843-1.993-1.887-3.917-3.103-5.718c-0.915-1.352-1.621-2.188-1.651-2.224
		c-0.597-0.702-0.55-1.845,0.102-2.497l1.899-1.899c0.292-0.292,0.67-0.452,1.064-0.452c0.437,0,0.841,0.19,1.137,0.536
		c0.013,0.015,1.293,1.51,2.419,3.178c1.433,2.119,2.664,4.386,3.658,6.738c1.011,2.39,1.789,4.896,2.312,7.45
		c0.43,2.102,0.609,4.354,0.611,4.377c0.034,0.432-0.103,0.837-0.384,1.142c-0.282,0.305-0.676,0.472-1.109,0.472H144.548z"/>
	<path fill="#FFFFFF" d="M138.589,40.235c0.289,0,0.558,0.128,0.758,0.361c0.013,0.015,1.276,1.49,2.384,3.132
		c1.415,2.092,2.629,4.33,3.612,6.653c0.998,2.359,1.766,4.834,2.283,7.354c0.423,2.07,0.601,4.294,0.602,4.316
		c0.023,0.292-0.067,0.562-0.252,0.764c-0.186,0.201-0.45,0.312-0.742,0.312h-2.686c-0.672,0-1.288-0.566-1.344-1.236
		c-0.005-0.057-0.121-1.416-0.477-3.153c-0.45-2.194-1.119-4.351-1.99-6.409c-0.855-2.022-1.915-3.975-3.149-5.803
		c-0.929-1.374-1.653-2.231-1.684-2.267c-0.435-0.511-0.4-1.345,0.074-1.819l1.899-1.899
		C138.075,40.344,138.328,40.235,138.589,40.235 M138.589,39.235c-0.508,0-1.018,0.198-1.418,0.599l-1.899,1.899
		c-0.84,0.84-0.898,2.269-0.129,3.174c0,0,0.708,0.835,1.618,2.18c1.198,1.775,2.227,3.671,3.057,5.633
		c0.845,1.996,1.495,4.09,1.932,6.22c0.348,1.699,0.459,3.036,0.459,3.036c0.099,1.184,1.152,2.152,2.34,2.152h2.686
		c1.188,0,2.084-0.969,1.992-2.153c0,0-0.178-2.279-0.62-4.438c-0.529-2.582-1.316-5.12-2.342-7.544
		c-1.007-2.381-2.253-4.677-3.704-6.823c-1.156-1.713-2.454-3.224-2.454-3.224C139.701,39.474,139.146,39.235,138.589,39.235
		L138.589,39.235z"/>
</g>
<g>
	<path fill="#86519C" d="M112.741,105.105c-0.833,0-1.486-0.658-1.486-1.499v-2.686c0-0.921,0.776-1.765,1.694-1.842
		c0.056-0.004,1.386-0.118,3.095-0.468c2.165-0.443,4.29-1.104,6.314-1.961c1.994-0.842,3.917-1.886,5.718-3.103
		c1.351-0.913,2.188-1.621,2.224-1.65c0.32-0.272,0.742-0.422,1.187-0.422c0.5,0,0.977,0.191,1.31,0.523l1.899,1.899
		c0.307,0.307,0.467,0.705,0.451,1.12c-0.016,0.416-0.206,0.8-0.535,1.082c-0.015,0.013-1.511,1.294-3.178,2.42
		c-2.118,1.431-4.384,2.662-6.737,3.657c-2.395,1.013-4.901,1.791-7.45,2.312c-2.105,0.431-4.355,0.61-4.377,0.611L112.741,105.105z
		"/>
	<path fill="#FFFFFF" d="M131.486,91.975c0.368,0,0.716,0.137,0.956,0.377l1.899,1.899c0.207,0.207,0.315,0.473,0.305,0.747
		c-0.011,0.275-0.139,0.531-0.361,0.722c-0.015,0.012-1.487,1.274-3.132,2.385c-2.091,1.413-4.329,2.628-6.652,3.611
		c-2.364,1-4.839,1.768-7.356,2.283c-2.071,0.424-4.293,0.601-4.315,0.603c-0.03,0.002-0.06,0.003-0.089,0.003
		c-0.562,0-0.986-0.429-0.986-0.999v-2.686c0-0.672,0.566-1.288,1.236-1.344c0.057-0.005,1.416-0.121,3.153-0.477
		c2.197-0.45,4.354-1.12,6.408-1.99c2.024-0.855,3.977-1.915,5.804-3.149c1.373-0.928,2.231-1.653,2.267-1.684
		C130.853,92.082,131.16,91.975,131.486,91.975 M131.486,90.975c-0.542,0-1.084,0.178-1.511,0.541c0,0-0.836,0.709-2.18,1.618
		c-1.771,1.196-3.666,2.226-5.633,3.057c-1.997,0.846-4.09,1.495-6.22,1.932c-1.7,0.348-3.036,0.459-3.036,0.459
		c-1.184,0.099-2.152,1.152-2.152,2.34v2.686c0,1.131,0.879,1.999,1.986,1.999c0.055,0,0.111-0.002,0.167-0.006
		c0,0,2.278-0.178,4.438-0.62c2.583-0.528,5.121-1.316,7.545-2.342c2.382-1.008,4.678-2.254,6.822-3.703
		c1.712-1.156,3.224-2.455,3.224-2.455c0.901-0.774,0.951-2.095,0.111-2.935l-1.899-1.899
		C132.705,91.2,132.096,90.975,131.486,90.975L131.486,90.975z"/>
</g>
<g>
	<path fill="#E48081" d="M105.641,105.1c-0.022-0.001-2.274-0.181-4.376-0.611c-2.551-0.521-5.058-1.3-7.451-2.312
		c-2.353-0.996-4.62-2.226-6.739-3.658c-1.669-1.127-3.162-2.407-3.177-2.419c-0.386-0.332-0.617-0.765-0.633-1.188
		c-0.007-0.204,0.034-0.497,0.274-0.737l2.477-2.477c0.202-0.202,0.508-0.312,0.862-0.312c0.464,0,0.95,0.187,1.333,0.513
		c0.035,0.029,0.872,0.738,2.224,1.651c1.798,1.215,3.722,2.259,5.717,3.103c2.031,0.859,4.156,1.52,6.316,1.961
		c1.708,0.35,3.038,0.463,3.094,0.468c0.918,0.077,1.694,0.921,1.694,1.842v2.686c0,0.412-0.153,0.792-0.432,1.07
		c-0.276,0.276-0.651,0.428-1.055,0.428L105.641,105.1z"/>
	<path fill="#FFFFFF" d="M86.876,91.884c0.347,0,0.715,0.144,1.01,0.394c0.036,0.03,0.894,0.756,2.268,1.684
		c1.825,1.233,3.777,2.292,5.802,3.149c2.062,0.873,4.219,1.542,6.411,1.99c1.737,0.355,3.096,0.472,3.152,0.477
		c0.67,0.056,1.236,0.671,1.236,1.344v2.686c0,0.569-0.424,0.999-0.986,0.999c-0.029,0-0.059-0.001-0.089-0.003
		c-0.022-0.001-2.245-0.179-4.315-0.603c-2.518-0.515-4.993-1.283-7.355-2.283c-2.323-0.983-4.562-2.198-6.654-3.612
		c-1.641-1.108-3.117-2.372-3.131-2.384c-0.277-0.238-0.449-0.547-0.459-0.828c-0.006-0.151,0.037-0.274,0.128-0.365l2.41-2.411
		l0.066-0.066C86.475,91.943,86.656,91.884,86.876,91.884 M86.876,90.884c-0.47,0-0.907,0.151-1.215,0.459
		c-0.674,0.674-1.789,1.789-2.477,2.477c-0.688,0.688-0.514,1.885,0.387,2.659c0,0,1.511,1.298,3.223,2.454
		c2.146,1.45,4.442,2.696,6.824,3.704c2.423,1.025,4.961,1.813,7.545,2.342c2.159,0.442,4.438,0.62,4.438,0.62
		c0.056,0.004,0.112,0.006,0.167,0.006c1.107,0,1.986-0.867,1.986-1.999v-2.686c0-1.188-0.969-2.241-2.152-2.34
		c0,0-1.336-0.112-3.035-0.459c-2.13-0.436-4.223-1.086-6.222-1.932c-1.964-0.831-3.859-1.859-5.632-3.057
		c-1.345-0.908-2.18-1.618-2.18-1.618C88.042,91.098,87.436,90.884,86.876,90.884L86.876,90.884z"/>
</g>
<g>
	<path fill="#E41D1E" d="M222.031,15.293c-0.445,0-0.867-0.149-1.188-0.421c-0.035-0.03-0.872-0.738-2.223-1.651
		c-1.795-1.214-3.718-2.258-5.717-3.104c-2.027-0.858-4.152-1.518-6.316-1.961c-1.709-0.35-3.038-0.463-3.094-0.468
		c-0.919-0.077-1.694-0.921-1.694-1.842V3.16c0-0.84,0.652-1.499,1.485-1.499c0.043,0,0.086,0.002,0.129,0.005
		c0.022,0.001,2.274,0.181,4.376,0.611c2.551,0.523,5.058,1.301,7.451,2.312c2.354,0.997,4.621,2.228,6.737,3.658
		c1.669,1.127,3.163,2.407,3.178,2.42c0.329,0.282,0.52,0.667,0.535,1.082c0.016,0.415-0.145,0.813-0.451,1.12l-1.899,1.899
		C223.008,15.102,222.53,15.293,222.031,15.293L222.031,15.293z"/>
	<path fill="#FFFFFF" d="M203.285,2.162c0.029,0,0.06,0.001,0.09,0.004c0.022,0.001,2.245,0.179,4.314,0.602
		c2.52,0.516,4.994,1.285,7.356,2.283c2.324,0.984,4.562,2.199,6.653,3.612c1.641,1.108,3.117,2.373,3.132,2.385
		c0.222,0.191,0.351,0.447,0.36,0.722c0.011,0.274-0.098,0.54-0.305,0.747l-1.899,1.899c-0.24,0.24-0.588,0.377-0.956,0.377
		c-0.327,0-0.634-0.107-0.863-0.303c-0.036-0.031-0.894-0.756-2.267-1.684c-1.821-1.231-3.773-2.291-5.803-3.15
		c-2.057-0.871-4.214-1.541-6.411-1.99c-1.737-0.355-3.095-0.472-3.152-0.477c-0.669-0.056-1.235-0.671-1.235-1.344V3.16
		C202.3,2.591,202.724,2.162,203.285,2.162 M203.285,1.162c-1.106,0-1.985,0.867-1.985,1.999v2.686c0,1.188,0.969,2.241,2.152,2.34
		c0,0,1.336,0.112,3.035,0.459c2.131,0.437,4.224,1.086,6.222,1.932c1.966,0.832,3.861,1.86,5.632,3.058
		c1.344,0.908,2.18,1.618,2.18,1.618c0.426,0.362,0.969,0.541,1.511,0.541c0.609,0,1.219-0.226,1.663-0.67l1.899-1.899
		c0.84-0.84,0.79-2.161-0.111-2.935c0,0-1.512-1.299-3.224-2.455c-2.145-1.449-4.44-2.695-6.823-3.704
		c-2.423-1.024-4.962-1.812-7.545-2.342c-2.159-0.441-4.438-0.62-4.438-0.62C203.396,1.164,203.341,1.162,203.285,1.162
		L203.285,1.162z"/>
</g>
<g>
	<path fill="#EBB8D0" d="M161.821,39.139c-0.434,0-0.828-0.167-1.109-0.472c-0.281-0.305-0.417-0.71-0.384-1.142
		c0.001-0.022,0.181-2.274,0.611-4.376c0.522-2.551,1.3-5.058,2.312-7.45c0.996-2.353,2.226-4.62,3.658-6.739
		c1.127-1.668,2.407-3.162,2.419-3.177c0.341-0.397,0.802-0.634,1.234-0.634c0.19,0,0.465,0.048,0.692,0.274l2.477,2.477
		c0.488,0.488,0.396,1.494-0.2,2.195c-0.029,0.035-0.737,0.872-1.65,2.224c-1.214,1.797-2.258,3.721-3.103,5.717
		c-0.859,2.03-1.519,4.155-1.961,6.316c-0.35,1.708-0.463,3.038-0.468,3.094c-0.077,0.918-0.921,1.694-1.842,1.694H161.821z"/>
	<path fill="#FFFFFF" d="M170.563,15.647c0.142,0,0.252,0.042,0.338,0.128l0.102,0.102l2.375,2.375
		c0.266,0.266,0.224,0.987-0.227,1.518c-0.03,0.036-0.755,0.893-1.684,2.268c-1.232,1.824-2.292,3.776-3.149,5.802
		c-0.872,2.061-1.542,4.217-1.99,6.411c-0.355,1.737-0.472,3.096-0.477,3.152c-0.056,0.67-0.671,1.236-1.344,1.236h-2.686
		c-0.292,0-0.556-0.111-0.742-0.312c-0.186-0.201-0.275-0.472-0.252-0.764c0.001-0.022,0.179-2.245,0.602-4.315
		c0.516-2.519,1.284-4.994,2.283-7.356c0.983-2.323,2.198-4.562,3.612-6.654c1.109-1.641,2.372-3.117,2.385-3.131
		C169.956,15.819,170.275,15.647,170.563,15.647 M170.563,14.647c-0.558,0-1.158,0.279-1.613,0.809c0,0-1.298,1.511-2.455,3.223
		c-1.45,2.146-2.696,4.442-3.704,6.824c-1.025,2.423-1.813,4.962-2.342,7.545c-0.442,2.159-0.62,4.438-0.62,4.438
		c-0.093,1.184,0.804,2.153,1.992,2.153h2.686c1.188,0,2.241-0.969,2.34-2.152c0,0,0.112-1.336,0.459-3.035
		c0.436-2.13,1.086-4.223,1.932-6.222c0.831-1.964,1.859-3.859,3.057-5.632c0.909-1.345,1.618-2.18,1.618-2.18
		c0.769-0.906,0.846-2.198,0.172-2.873s-1.789-1.789-2.477-2.477C171.325,14.785,170.955,14.647,170.563,14.647L170.563,14.647z"/>
</g>
<g>
	<path fill="#91779C" d="M177.422,15.383c-0.354,0-0.661-0.111-0.862-0.312l-2.477-2.477c-0.24-0.24-0.281-0.533-0.274-0.737
		c0.016-0.423,0.247-0.857,0.633-1.188c0.015-0.013,1.51-1.293,3.178-2.42c2.118-1.432,4.385-2.663,6.739-3.658
		c2.394-1.012,4.9-1.79,7.45-2.312c2.105-0.43,4.354-0.609,4.377-0.611c0.043-0.003,0.086-0.005,0.129-0.005
		c0.833,0,1.485,0.658,1.485,1.499v2.686c0,0.921-0.776,1.765-1.694,1.842c-0.056,0.004-1.386,0.118-3.095,0.468
		c-2.165,0.443-4.289,1.103-6.315,1.961c-1.996,0.844-3.919,1.889-5.717,3.104c-1.352,0.913-2.188,1.621-2.223,1.65
		C178.372,15.196,177.886,15.383,177.422,15.383L177.422,15.383z"/>
	<path fill="#FFFFFF" d="M196.314,2.162c0.562,0,0.985,0.429,0.985,0.999v2.686c0,0.672-0.566,1.288-1.236,1.344
		c-0.057,0.005-1.416,0.121-3.153,0.477c-2.196,0.45-4.353,1.12-6.41,1.99c-2.025,0.857-3.978,1.917-5.803,3.15
		c-1.374,0.928-2.23,1.653-2.266,1.683c-0.294,0.25-0.663,0.394-1.01,0.394c-0.221,0-0.402-0.059-0.509-0.166l-2.477-2.477
		c-0.09-0.09-0.133-0.212-0.127-0.364c0.01-0.281,0.182-0.59,0.459-0.828c0.015-0.013,1.49-1.276,3.132-2.385
		c2.091-1.414,4.33-2.629,6.653-3.612c2.363-0.999,4.837-1.767,7.354-2.283c2.071-0.423,4.294-0.601,4.316-0.603
		C196.255,2.163,196.285,2.162,196.314,2.162 M196.314,1.162c-0.056,0-0.111,0.002-0.168,0.007c0,0-2.278,0.178-4.438,0.62
		c-2.583,0.529-5.121,1.317-7.544,2.342c-2.382,1.008-4.678,2.254-6.824,3.704c-1.713,1.157-3.224,2.455-3.224,2.455
		c-0.901,0.774-1.076,1.97-0.387,2.658c0.688,0.688,1.803,1.803,2.477,2.477c0.308,0.308,0.746,0.459,1.216,0.459
		c0.559,0,1.166-0.213,1.657-0.631c0,0,0.835-0.709,2.179-1.617c1.773-1.198,3.668-2.227,5.632-3.058
		c1.998-0.846,4.091-1.495,6.221-1.932c1.7-0.348,3.036-0.459,3.036-0.459c1.184-0.099,2.152-1.152,2.152-2.34V3.16
		C198.3,2.029,197.421,1.162,196.314,1.162L196.314,1.162z"/>
</g>
<g>
	<path fill="#A67E67" d="M170.563,67.13c-0.432,0-0.893-0.237-1.234-0.634c-0.013-0.015-1.293-1.51-2.42-3.178
		c-1.432-2.119-2.663-4.387-3.658-6.739c-1.012-2.394-1.791-4.9-2.312-7.449c-0.431-2.105-0.609-4.355-0.611-4.377
		c-0.034-0.432,0.103-0.837,0.384-1.142c0.282-0.305,0.676-0.472,1.109-0.472h2.686c0.921,0,1.765,0.776,1.842,1.694
		c0.004,0.056,0.118,1.386,0.468,3.095c0.443,2.165,1.103,4.289,1.961,6.315c0.843,1.994,1.887,3.917,3.103,5.718
		c0.913,1.351,1.621,2.188,1.65,2.223c0.596,0.702,0.688,1.708,0.2,2.195l-2.477,2.477C171.028,67.083,170.753,67.13,170.563,67.13
		L170.563,67.13z"/>
	<path fill="#FFFFFF" d="M164.507,43.639c0.672,0,1.288,0.566,1.344,1.236c0.005,0.057,0.121,1.416,0.477,3.153
		c0.45,2.196,1.12,4.353,1.99,6.41c0.856,2.023,1.916,3.976,3.149,5.803c0.928,1.373,1.653,2.23,1.684,2.267
		c0.451,0.531,0.493,1.252,0.228,1.518l-2.477,2.477c-0.086,0.086-0.197,0.128-0.338,0.128c-0.288,0-0.607-0.172-0.854-0.459
		c-0.013-0.015-1.276-1.49-2.385-3.132c-1.414-2.092-2.629-4.331-3.611-6.654c-1-2.363-1.768-4.837-2.283-7.354
		c-0.423-2.071-0.601-4.294-0.602-4.316c-0.023-0.292,0.067-0.562,0.252-0.764c0.186-0.201,0.45-0.312,0.742-0.312H164.507
		 M164.507,42.639h-2.686c-1.188,0-2.084,0.969-1.992,2.153c0,0,0.178,2.278,0.62,4.438c0.529,2.583,1.317,5.121,2.342,7.544
		c1.008,2.383,2.254,4.679,3.704,6.824c1.157,1.713,2.455,3.224,2.455,3.224c0.455,0.53,1.056,0.808,1.613,0.808
		c0.391,0,0.761-0.137,1.045-0.421c0.688-0.688,1.803-1.803,2.477-2.477s0.597-1.967-0.172-2.873c0,0-0.709-0.835-1.617-2.179
		c-1.198-1.773-2.226-3.668-3.057-5.633c-0.846-1.998-1.495-4.091-1.932-6.221c-0.348-1.699-0.459-3.036-0.459-3.036
		C166.748,43.607,165.695,42.639,164.507,42.639L164.507,42.639z"/>
</g>
<g>
	<path fill="#4EAF4A" d="M229.134,67.032c-0.395,0-0.772-0.161-1.064-0.452l-1.899-1.899c-0.651-0.651-0.698-1.795-0.103-2.497
		c0.03-0.035,0.737-0.872,1.651-2.224c1.217-1.804,2.261-3.727,3.103-5.716c0.857-2.024,1.518-4.15,1.962-6.317
		c0.35-1.708,0.463-3.038,0.468-3.094c0.077-0.918,0.92-1.694,1.842-1.694h2.686c0.434,0,0.827,0.167,1.108,0.472
		c0.282,0.305,0.419,0.71,0.386,1.143c-0.002,0.022-0.183,2.274-0.612,4.376c-0.521,2.551-1.3,5.058-2.312,7.45
		c-0.994,2.352-2.225,4.619-3.657,6.739c-1.126,1.667-2.406,3.163-2.419,3.178C229.975,66.842,229.571,67.032,229.134,67.032z"/>
	<path fill="#FFFFFF" d="M237.778,43.639c0.293,0,0.556,0.11,0.742,0.312c0.186,0.201,0.275,0.473,0.253,0.764
		c-0.002,0.022-0.179,2.242-0.603,4.315c-0.516,2.519-1.283,4.993-2.283,7.355c-0.982,2.322-2.197,4.561-3.612,6.654
		c-1.107,1.642-2.371,3.117-2.384,3.132c-0.2,0.233-0.469,0.361-0.758,0.361c-0.261,0-0.514-0.108-0.711-0.306l-1.899-1.899
		c-0.475-0.475-0.509-1.309-0.074-1.82c0.03-0.036,0.755-0.893,1.685-2.268c1.234-1.83,2.294-3.782,3.147-5.8
		c0.871-2.055,1.541-4.212,1.991-6.412c0.355-1.736,0.473-3.095,0.477-3.153c0.057-0.669,0.672-1.235,1.344-1.235H237.778
		 M237.778,42.639h-2.686c-1.188,0-2.241,0.969-2.34,2.152c0,0-0.112,1.337-0.46,3.035c-0.437,2.131-1.086,4.225-1.933,6.223
		c-0.829,1.961-1.857,3.855-3.056,5.631c-0.909,1.345-1.618,2.18-1.618,2.18c-0.769,0.906-0.71,2.334,0.13,3.174l1.899,1.899
		c0.4,0.4,0.91,0.599,1.418,0.599c0.558,0,1.112-0.238,1.517-0.71c0,0,1.298-1.511,2.454-3.224c1.451-2.147,2.697-4.443,3.704-6.824
		c1.025-2.423,1.813-4.962,2.342-7.545c0.441-2.158,0.62-4.438,0.62-4.438C239.862,43.608,238.967,42.639,237.778,42.639
		L237.778,42.639z"/>
</g>
<g>
	<path fill="#377EB9" d="M235.093,39.139c-0.922,0-1.765-0.776-1.842-1.694c-0.005-0.056-0.118-1.386-0.468-3.095
		c-0.443-2.163-1.104-4.287-1.961-6.314c-0.844-1.993-1.888-3.917-3.104-5.718c-0.914-1.352-1.621-2.188-1.651-2.224
		c-0.596-0.702-0.549-1.845,0.103-2.497l1.899-1.899c0.292-0.292,0.67-0.452,1.064-0.452c0.438,0,0.841,0.19,1.137,0.536
		c0.014,0.015,1.294,1.51,2.42,3.178c1.433,2.119,2.663,4.386,3.657,6.738c1.012,2.39,1.789,4.896,2.312,7.45
		c0.431,2.104,0.61,4.354,0.612,4.377c0.033,0.432-0.104,0.838-0.386,1.143c-0.281,0.304-0.675,0.472-1.108,0.472H235.093z"/>
	<path fill="#FFFFFF" d="M229.134,15.746c0.289,0,0.558,0.128,0.758,0.361c0.013,0.015,1.276,1.49,2.385,3.132
		c1.414,2.092,2.629,4.33,3.611,6.653c0.998,2.359,1.767,4.834,2.283,7.354c0.423,2.07,0.601,4.294,0.603,4.315
		c0.022,0.292-0.067,0.564-0.253,0.765c-0.187,0.201-0.449,0.312-0.742,0.312h-2.686c-0.672,0-1.287-0.566-1.344-1.236
		c-0.004-0.057-0.121-1.416-0.477-3.153c-0.449-2.194-1.119-4.351-1.99-6.409c-0.855-2.022-1.915-3.975-3.149-5.803
		c-0.929-1.375-1.653-2.231-1.684-2.267c-0.435-0.512-0.4-1.345,0.074-1.82l1.899-1.899
		C228.62,15.854,228.873,15.746,229.134,15.746 M229.134,14.746c-0.508,0-1.018,0.198-1.418,0.599l-1.899,1.899
		c-0.84,0.84-0.898,2.269-0.13,3.174c0,0,0.709,0.835,1.618,2.18c1.198,1.775,2.227,3.671,3.057,5.633
		c0.845,1.996,1.495,4.09,1.932,6.22c0.348,1.699,0.46,3.036,0.46,3.036c0.099,1.184,1.151,2.152,2.34,2.152h2.686
		c1.188,0,2.084-0.969,1.992-2.153c0,0-0.179-2.279-0.62-4.438c-0.529-2.582-1.316-5.12-2.342-7.544
		c-1.007-2.381-2.253-4.677-3.704-6.823c-1.156-1.713-2.454-3.224-2.454-3.224C230.246,14.984,229.691,14.746,229.134,14.746
		L229.134,14.746z"/>
</g>
<g>
	<path fill="#F07E1A" d="M203.286,80.616c-0.834,0-1.486-0.658-1.486-1.499v-2.686c0-0.921,0.775-1.765,1.694-1.842
		c0.056-0.004,1.385-0.118,3.095-0.468c2.165-0.443,4.289-1.104,6.314-1.961c1.993-0.842,3.917-1.886,5.718-3.103
		c1.351-0.913,2.188-1.621,2.223-1.65c0.32-0.272,0.742-0.422,1.188-0.422c0.499,0,0.977,0.191,1.31,0.523l1.899,1.899
		c0.307,0.307,0.467,0.705,0.451,1.12c-0.016,0.416-0.206,0.8-0.535,1.082c-0.015,0.013-1.511,1.294-3.178,2.42
		c-2.117,1.431-4.384,2.662-6.737,3.657c-2.395,1.013-4.9,1.791-7.45,2.312c-2.103,0.431-4.354,0.61-4.377,0.611L203.286,80.616z"/>
	<path fill="#FFFFFF" d="M222.031,67.485c0.368,0,0.716,0.137,0.956,0.377l1.899,1.899c0.207,0.207,0.315,0.473,0.305,0.747
		c-0.01,0.275-0.139,0.531-0.36,0.722c-0.015,0.012-1.487,1.274-3.132,2.385c-2.091,1.413-4.329,2.628-6.652,3.611
		c-2.364,1-4.839,1.768-7.355,2.283c-2.071,0.424-4.294,0.601-4.315,0.603c-0.03,0.002-0.061,0.003-0.09,0.003
		c-0.562,0-0.986-0.429-0.986-0.999v-2.686c0-0.672,0.566-1.288,1.235-1.344c0.058-0.005,1.415-0.121,3.154-0.477
		c2.196-0.45,4.353-1.12,6.408-1.99c2.023-0.855,3.976-1.915,5.803-3.149c1.374-0.928,2.231-1.653,2.268-1.684
		C221.397,67.593,221.704,67.485,222.031,67.485 M222.031,66.485c-0.542,0-1.085,0.178-1.511,0.541c0,0-0.836,0.709-2.18,1.618
		c-1.771,1.196-3.666,2.226-5.633,3.057c-1.997,0.846-4.09,1.495-6.22,1.932c-1.7,0.348-3.036,0.459-3.036,0.459
		c-1.184,0.099-2.152,1.152-2.152,2.34v2.686c0,1.131,0.879,1.999,1.986,1.999c0.055,0,0.11-0.002,0.167-0.006
		c0,0,2.278-0.178,4.438-0.62c2.583-0.528,5.121-1.316,7.545-2.342c2.382-1.008,4.678-2.254,6.822-3.703
		c1.712-1.156,3.224-2.455,3.224-2.455c0.901-0.774,0.951-2.095,0.111-2.935l-1.899-1.899
		C223.25,66.711,222.641,66.485,222.031,66.485L222.031,66.485z"/>
</g>
<g>
	<path fill="#F4EE91" d="M196.186,80.611c-0.022-0.001-2.274-0.181-4.376-0.611c-2.551-0.521-5.058-1.3-7.451-2.312
		c-2.353-0.996-4.62-2.226-6.739-3.658c-1.669-1.127-3.162-2.407-3.177-2.419c-0.386-0.332-0.617-0.765-0.633-1.188
		c-0.007-0.204,0.034-0.497,0.274-0.737l2.477-2.477c0.202-0.202,0.508-0.312,0.862-0.312c0.464,0,0.95,0.187,1.333,0.513
		c0.035,0.029,0.872,0.738,2.224,1.651c1.798,1.215,3.722,2.259,5.717,3.103c2.031,0.859,4.156,1.52,6.316,1.961
		c1.708,0.35,3.038,0.463,3.094,0.468c0.918,0.077,1.694,0.921,1.694,1.842v2.686c0,0.412-0.153,0.792-0.432,1.07
		c-0.276,0.276-0.651,0.428-1.055,0.428L196.186,80.611z"/>
	<path fill="#FFFFFF" d="M177.421,67.395c0.347,0,0.715,0.144,1.01,0.394c0.036,0.03,0.894,0.756,2.268,1.684
		c1.825,1.233,3.777,2.292,5.802,3.149c2.062,0.873,4.219,1.542,6.411,1.99c1.737,0.355,3.096,0.472,3.152,0.477
		c0.67,0.056,1.236,0.671,1.236,1.344v2.686c0,0.569-0.424,0.999-0.986,0.999c-0.029,0-0.059-0.001-0.089-0.003
		c-0.022-0.001-2.245-0.179-4.315-0.603c-2.518-0.515-4.993-1.283-7.355-2.283c-2.323-0.983-4.562-2.198-6.654-3.612
		c-1.641-1.108-3.117-2.372-3.131-2.384c-0.277-0.238-0.449-0.547-0.459-0.828c-0.006-0.151,0.037-0.274,0.128-0.365l2.41-2.411
		l0.066-0.066C177.02,67.454,177.201,67.395,177.421,67.395 M177.421,66.395c-0.47,0-0.907,0.151-1.215,0.459
		c-0.674,0.674-1.789,1.789-2.477,2.477c-0.688,0.688-0.514,1.885,0.387,2.659c0,0,1.511,1.298,3.223,2.454
		c2.146,1.45,4.442,2.696,6.824,3.704c2.423,1.025,4.961,1.813,7.545,2.342c2.159,0.442,4.438,0.62,4.438,0.62
		c0.056,0.004,0.112,0.006,0.167,0.006c1.107,0,1.986-0.867,1.986-1.999v-2.686c0-1.188-0.969-2.241-2.152-2.34
		c0,0-1.336-0.112-3.035-0.459c-2.13-0.436-4.223-1.086-6.222-1.932c-1.964-0.831-3.859-1.859-5.632-3.057
		c-1.345-0.908-2.18-1.618-2.18-1.618C178.586,66.608,177.98,66.395,177.421,66.395L177.421,66.395z"/>
</g>
<g>
	<path fill="#E41D1E" d="M311.938,39.781c-0.445,0-0.867-0.149-1.188-0.421c-0.035-0.03-0.872-0.738-2.223-1.651
		c-1.8-1.216-3.724-2.26-5.718-3.103c-2.026-0.858-4.151-1.518-6.315-1.961c-1.709-0.35-3.038-0.463-3.094-0.468
		c-0.919-0.077-1.694-0.921-1.694-1.842v-2.686c0-0.84,0.652-1.499,1.486-1.499l0.128,0.005c0.022,0.001,2.274,0.181,4.376,0.611
		c2.551,0.522,5.058,1.3,7.45,2.312c2.354,0.996,4.622,2.227,6.738,3.658c1.669,1.126,3.163,2.406,3.178,2.419
		c0.329,0.282,0.52,0.667,0.535,1.082c0.016,0.415-0.145,0.813-0.451,1.12l-1.899,1.899
		C312.915,39.59,312.438,39.781,311.938,39.781L311.938,39.781z"/>
	<path fill="#FFFFFF" d="M293.193,26.651c0.029,0,0.06,0.001,0.089,0.003c0.022,0.001,2.245,0.179,4.315,0.603
		c2.519,0.515,4.993,1.284,7.355,2.283c2.324,0.983,4.562,2.198,6.653,3.612c1.641,1.107,3.117,2.371,3.132,2.384
		c0.222,0.191,0.351,0.447,0.36,0.722c0.011,0.274-0.098,0.54-0.305,0.747l-1.899,1.899c-0.24,0.24-0.588,0.377-0.956,0.377
		c-0.327,0-0.634-0.107-0.863-0.303c-0.036-0.031-0.894-0.756-2.268-1.684c-1.826-1.234-3.778-2.293-5.802-3.149
		c-2.057-0.871-4.214-1.541-6.411-1.99c-1.737-0.355-3.095-0.472-3.152-0.477c-0.67-0.056-1.235-0.671-1.235-1.344v-2.686
		C292.207,27.08,292.631,26.651,293.193,26.651 M293.193,25.651c-1.107,0-1.986,0.867-1.986,1.999v2.686
		c0,1.188,0.969,2.241,2.152,2.34c0,0,1.336,0.112,3.035,0.459c2.131,0.437,4.224,1.086,6.222,1.932
		c1.966,0.831,3.861,1.86,5.632,3.057c1.344,0.908,2.18,1.618,2.18,1.618c0.426,0.362,0.969,0.541,1.511,0.541
		c0.609,0,1.219-0.226,1.663-0.67l1.899-1.899c0.84-0.84,0.79-2.161-0.111-2.935c0,0-1.512-1.299-3.224-2.454
		c-2.145-1.45-4.44-2.696-6.823-3.704c-2.423-1.025-4.962-1.813-7.545-2.342c-2.159-0.442-4.438-0.62-4.438-0.62
		C293.304,25.653,293.248,25.651,293.193,25.651L293.193,25.651z"/>
</g>
<g>
	<path fill="#A67E67" d="M251.729,63.628c-0.434,0-0.827-0.167-1.108-0.472c-0.282-0.305-0.418-0.71-0.385-1.143
		c0.002-0.022,0.182-2.274,0.611-4.376c0.522-2.554,1.301-5.061,2.312-7.45c0.995-2.354,2.226-4.621,3.657-6.739
		c1.127-1.667,2.407-3.163,2.42-3.178c0.341-0.397,0.802-0.634,1.233-0.634c0.19,0,0.466,0.047,0.692,0.274l2.477,2.477
		c0.487,0.488,0.396,1.493-0.199,2.195c-0.03,0.035-0.738,0.873-1.651,2.225c-1.216,1.799-2.26,3.723-3.104,5.717
		c-0.858,2.03-1.519,4.155-1.961,6.316c-0.35,1.708-0.462,3.038-0.467,3.094c-0.077,0.918-0.921,1.694-1.843,1.694H251.729z"/>
	<path fill="#FFFFFF" d="M260.47,40.136c0.142,0,0.253,0.042,0.339,0.128l1.287,1.288l1.189,1.189
		c0.266,0.266,0.224,0.986-0.228,1.518c-0.03,0.036-0.756,0.894-1.685,2.269c-1.233,1.826-2.293,3.778-3.148,5.802
		c-0.872,2.061-1.542,4.218-1.99,6.411c-0.355,1.737-0.472,3.095-0.476,3.151c-0.057,0.67-0.673,1.236-1.345,1.236h-2.686
		c-0.293,0-0.556-0.11-0.741-0.312c-0.187-0.201-0.276-0.472-0.253-0.764c0.002-0.022,0.179-2.246,0.602-4.315
		c0.517-2.522,1.285-4.997,2.283-7.356c0.982-2.324,2.198-4.562,3.612-6.654c1.108-1.642,2.372-3.117,2.385-3.132
		C259.863,40.308,260.183,40.136,260.47,40.136 M260.47,39.136c-0.558,0-1.158,0.278-1.612,0.808c0,0-1.298,1.511-2.455,3.224
		c-1.45,2.146-2.696,4.441-3.704,6.824c-1.025,2.423-1.812,4.961-2.342,7.545c-0.441,2.159-0.619,4.438-0.619,4.438
		c-0.093,1.184,0.803,2.153,1.991,2.153h2.686c1.188,0,2.241-0.969,2.341-2.152c0,0,0.111-1.336,0.459-3.035
		c0.436-2.13,1.086-4.224,1.932-6.222c0.831-1.965,1.859-3.859,3.057-5.632c0.908-1.345,1.618-2.181,1.618-2.181
		c0.769-0.905,0.846-2.198,0.172-2.872s-1.788-1.789-2.477-2.477C261.231,39.273,260.861,39.136,260.47,39.136L260.47,39.136z"/>
</g>
<g>
	<path fill="#91779C" d="M267.328,39.872c-0.354,0-0.66-0.111-0.861-0.312l-2.477-2.477c-0.24-0.24-0.281-0.533-0.273-0.737
		c0.016-0.424,0.247-0.857,0.634-1.189c0.015-0.013,1.509-1.293,3.177-2.42c2.122-1.433,4.39-2.663,6.738-3.657
		c2.394-1.013,4.9-1.791,7.45-2.312c2.103-0.431,4.354-0.61,4.377-0.611l0.128-0.005c0.834,0,1.486,0.658,1.486,1.499v2.686
		c0,0.921-0.775,1.765-1.694,1.842c-0.056,0.004-1.386,0.118-3.095,0.468c-2.164,0.443-4.289,1.103-6.315,1.961
		c-1.992,0.843-3.916,1.887-5.717,3.103c-1.352,0.913-2.188,1.621-2.224,1.651C268.278,39.685,267.792,39.872,267.328,39.872
		L267.328,39.872z"/>
	<path fill="#FFFFFF" d="M286.221,26.651c0.562,0,0.986,0.429,0.986,0.999v2.686c0,0.672-0.566,1.288-1.235,1.344
		c-0.058,0.005-1.416,0.121-3.154,0.477c-2.196,0.45-4.353,1.12-6.409,1.99c-2.022,0.855-3.976,1.915-5.803,3.149
		c-1.374,0.928-2.231,1.653-2.268,1.684c-0.294,0.25-0.662,0.394-1.01,0.394c-0.217,0-0.402-0.061-0.508-0.166l-1.189-1.189
		l-1.287-1.288c-0.09-0.09-0.133-0.213-0.128-0.364c0.011-0.281,0.183-0.591,0.46-0.83c0.015-0.013,1.485-1.272,3.131-2.384
		c2.096-1.415,4.334-2.629,6.654-3.611c2.363-1,4.838-1.768,7.354-2.283c2.071-0.424,4.294-0.601,4.316-0.603
		C286.161,26.652,286.191,26.651,286.221,26.651 M286.221,25.651c-0.055,0-0.11,0.002-0.167,0.006c0,0-2.278,0.178-4.438,0.62
		c-2.583,0.528-5.121,1.316-7.544,2.342c-2.383,1.008-4.678,2.254-6.824,3.703c-1.713,1.157-3.223,2.455-3.223,2.455
		c-0.901,0.774-1.076,1.971-0.388,2.659s1.803,1.803,2.477,2.477c0.308,0.308,0.745,0.459,1.215,0.459
		c0.56,0,1.165-0.213,1.657-0.631c0,0,0.836-0.709,2.18-1.618c1.773-1.197,3.668-2.226,5.633-3.057
		c1.998-0.846,4.091-1.495,6.221-1.932c1.699-0.348,3.036-0.459,3.036-0.459c1.184-0.099,2.152-1.152,2.152-2.34v-2.686
		C288.207,26.518,287.328,25.651,286.221,25.651L286.221,25.651z"/>
</g>
<g>
	<path fill="#F4EE91" d="M260.471,91.619c-0.432,0-0.894-0.237-1.233-0.634c-0.014-0.015-1.294-1.51-2.422-3.178
		c-1.431-2.119-2.661-4.386-3.656-6.738c-1.012-2.389-1.789-4.896-2.312-7.45c-0.43-2.103-0.609-4.354-0.611-4.377
		c-0.033-0.432,0.103-0.838,0.385-1.143c0.281-0.304,0.675-0.472,1.108-0.472h2.686c0.922,0,1.766,0.776,1.843,1.694
		c0.005,0.055,0.117,1.385,0.467,3.094c0.444,2.165,1.104,4.289,1.961,6.315c0.845,1.996,1.889,3.919,3.104,5.717
		c0.913,1.352,1.62,2.188,1.65,2.224c0.596,0.702,0.688,1.707,0.2,2.195l-2.477,2.477C260.936,91.571,260.661,91.619,260.471,91.619
		L260.471,91.619z"/>
	<path fill="#FFFFFF" d="M254.414,68.128c0.672,0,1.288,0.566,1.345,1.235c0.004,0.057,0.12,1.415,0.476,3.154
		c0.45,2.196,1.12,4.353,1.99,6.41c0.857,2.025,1.917,3.978,3.148,5.802c0.929,1.375,1.653,2.231,1.685,2.268
		c0.451,0.531,0.493,1.252,0.228,1.518l-2.477,2.477c-0.086,0.086-0.196,0.128-0.338,0.128c-0.288,0-0.607-0.172-0.854-0.46
		c-0.013-0.015-1.273-1.486-2.386-3.131c-1.414-2.093-2.629-4.331-3.611-6.653c-0.998-2.358-1.767-4.833-2.283-7.354
		c-0.423-2.071-0.6-4.294-0.602-4.316c-0.023-0.292,0.066-0.563,0.253-0.764c0.186-0.201,0.448-0.312,0.741-0.312H254.414
		 M254.414,67.128h-2.686c-1.188,0-2.084,0.969-1.991,2.153c0,0,0.178,2.278,0.619,4.438c0.529,2.583,1.316,5.121,2.342,7.544
		c1.008,2.382,2.254,4.678,3.703,6.823c1.158,1.713,2.456,3.224,2.456,3.224c0.454,0.53,1.056,0.809,1.613,0.809
		c0.391,0,0.761-0.137,1.045-0.421c0.688-0.688,1.803-1.803,2.477-2.477s0.597-1.967-0.173-2.873c0,0-0.709-0.835-1.617-2.18
		c-1.197-1.772-2.226-3.668-3.057-5.632c-0.846-1.998-1.495-4.091-1.932-6.221c-0.348-1.7-0.459-3.036-0.459-3.036
		C256.655,68.097,255.603,67.128,254.414,67.128L254.414,67.128z"/>
</g>
<g>
	<path fill="#F07E1A" d="M319.041,91.521c-0.395,0-0.772-0.161-1.064-0.452l-1.899-1.899c-0.651-0.651-0.698-1.795-0.103-2.497
		c0.03-0.035,0.737-0.872,1.651-2.223c1.217-1.803,2.26-3.726,3.103-5.717c0.857-2.025,1.518-4.15,1.962-6.316
		c0.35-1.708,0.463-3.038,0.468-3.094c0.077-0.918,0.92-1.694,1.842-1.694h2.686c0.434,0,0.827,0.167,1.108,0.472
		c0.282,0.305,0.419,0.71,0.386,1.143c-0.002,0.022-0.183,2.274-0.612,4.376c-0.521,2.55-1.3,5.057-2.312,7.45
		c-0.994,2.352-2.225,4.619-3.657,6.739c-1.127,1.668-2.406,3.162-2.419,3.177C319.882,91.331,319.479,91.521,319.041,91.521z"/>
	<path fill="#FFFFFF" d="M327.686,68.128c0.293,0,0.556,0.11,0.742,0.312c0.186,0.201,0.275,0.473,0.253,0.764
		c-0.002,0.022-0.179,2.242-0.603,4.315c-0.516,2.518-1.283,4.993-2.283,7.356c-0.981,2.322-2.197,4.561-3.612,6.654
		c-1.107,1.641-2.371,3.116-2.384,3.131c-0.2,0.233-0.469,0.361-0.758,0.361c-0.261,0-0.514-0.108-0.711-0.306l-1.899-1.899
		c-0.475-0.475-0.509-1.308-0.074-1.819c0.03-0.036,0.755-0.893,1.685-2.268c1.234-1.829,2.293-3.781,3.147-5.801
		c0.871-2.056,1.541-4.213,1.991-6.411c0.355-1.736,0.472-3.095,0.477-3.153c0.057-0.669,0.672-1.235,1.344-1.235H327.686
		 M327.686,67.128H325c-1.188,0-2.241,0.969-2.34,2.152c0,0-0.112,1.337-0.46,3.035c-0.437,2.131-1.086,4.224-1.933,6.222
		c-0.829,1.961-1.857,3.856-3.056,5.632c-0.909,1.345-1.618,2.18-1.618,2.18c-0.769,0.905-0.71,2.334,0.13,3.174l1.899,1.899
		c0.4,0.4,0.91,0.599,1.418,0.599c0.558,0,1.112-0.238,1.517-0.71c0,0,1.298-1.511,2.454-3.223c1.451-2.147,2.697-4.443,3.704-6.824
		c1.025-2.424,1.813-4.963,2.342-7.545c0.441-2.158,0.62-4.438,0.62-4.438C329.77,68.097,328.874,67.128,327.686,67.128
		L327.686,67.128z"/>
</g>
<g>
	<path fill="#4EAF4A" d="M325,63.628c-0.922,0-1.765-0.776-1.842-1.694c-0.005-0.056-0.118-1.387-0.468-3.095
		c-0.443-2.161-1.103-4.286-1.961-6.315c-0.843-1.99-1.887-3.914-3.104-5.718c-0.914-1.351-1.621-2.188-1.651-2.223
		c-0.596-0.702-0.549-1.846,0.103-2.497l1.899-1.899c0.292-0.292,0.67-0.452,1.064-0.452c0.438,0,0.841,0.19,1.137,0.536
		c0.014,0.015,1.294,1.51,2.42,3.178c1.433,2.12,2.663,4.387,3.657,6.738c1.012,2.39,1.79,4.897,2.312,7.451
		c0.431,2.104,0.61,4.354,0.612,4.377c0.033,0.432-0.104,0.838-0.386,1.143c-0.281,0.304-0.675,0.472-1.108,0.472H325z"/>
	<path fill="#FFFFFF" d="M319.041,40.234c0.289,0,0.558,0.128,0.758,0.361c0.013,0.015,1.276,1.49,2.385,3.132
		c1.414,2.093,2.629,4.331,3.611,6.653c0.998,2.36,1.767,4.835,2.283,7.355c0.423,2.07,0.601,4.294,0.603,4.315
		c0.022,0.292-0.067,0.564-0.253,0.765c-0.187,0.201-0.449,0.312-0.742,0.312H325c-0.672,0-1.287-0.566-1.344-1.236
		c-0.005-0.057-0.121-1.417-0.477-3.153c-0.449-2.193-1.119-4.35-1.99-6.41c-0.854-2.02-1.914-3.972-3.149-5.804
		c-0.929-1.373-1.653-2.23-1.684-2.266c-0.435-0.512-0.4-1.346,0.074-1.82l1.899-1.899C318.527,40.343,318.78,40.234,319.041,40.234
		 M319.041,39.234c-0.508,0-1.018,0.198-1.418,0.599l-1.899,1.899c-0.84,0.84-0.898,2.269-0.13,3.174c0,0,0.709,0.835,1.618,2.179
		c1.198,1.776,2.227,3.671,3.057,5.633c0.845,1.997,1.495,4.09,1.932,6.221c0.348,1.698,0.46,3.036,0.46,3.036
		c0.099,1.184,1.151,2.152,2.34,2.152h2.686c1.188,0,2.084-0.969,1.992-2.153c0,0-0.179-2.279-0.62-4.438
		c-0.529-2.583-1.316-5.121-2.342-7.545c-1.007-2.38-2.253-4.676-3.704-6.823c-1.156-1.713-2.454-3.224-2.454-3.224
		C320.153,39.473,319.599,39.234,319.041,39.234L319.041,39.234z"/>
</g>
<g>
	<path fill="#F4E72D" d="M293.192,105.105c-0.833,0-1.485-0.658-1.485-1.499v-2.686c0-0.921,0.775-1.765,1.694-1.842
		c0.056-0.004,1.385-0.118,3.095-0.468c2.16-0.443,4.284-1.103,6.313-1.961c2-0.846,3.924-1.89,5.719-3.104
		c1.351-0.913,2.188-1.621,2.223-1.65c0.32-0.272,0.742-0.422,1.188-0.422c0.499,0,0.977,0.191,1.31,0.523l1.899,1.899
		c0.307,0.307,0.467,0.705,0.451,1.12c-0.016,0.416-0.206,0.8-0.535,1.082c-0.015,0.013-1.511,1.294-3.178,2.42
		c-2.116,1.431-4.383,2.661-6.737,3.658c-2.395,1.012-4.901,1.79-7.45,2.312c-2.105,0.43-4.354,0.609-4.377,0.611
		C293.278,105.103,293.235,105.105,293.192,105.105z"/>
	<path fill="#FFFFFF" d="M311.938,91.974c0.368,0,0.716,0.137,0.956,0.377l1.899,1.899c0.207,0.207,0.315,0.473,0.305,0.747
		c-0.01,0.275-0.139,0.531-0.36,0.722c-0.015,0.012-1.487,1.274-3.132,2.385c-2.09,1.412-4.328,2.627-6.652,3.612
		c-2.364,0.999-4.839,1.767-7.355,2.283c-2.071,0.423-4.294,0.601-4.316,0.603c-0.03,0.002-0.061,0.004-0.09,0.004
		c-0.562,0-0.985-0.429-0.985-0.999v-2.686c0-0.672,0.565-1.288,1.235-1.344c0.058-0.005,1.415-0.121,3.154-0.477
		c2.192-0.449,4.349-1.119,6.408-1.99c2.029-0.858,3.981-1.918,5.803-3.15c1.374-0.928,2.231-1.653,2.268-1.684
		C311.305,92.081,311.611,91.974,311.938,91.974 M311.938,90.974c-0.542,0-1.085,0.178-1.511,0.541c0,0-0.836,0.709-2.18,1.618
		c-1.771,1.197-3.666,2.226-5.633,3.058c-1.997,0.845-4.09,1.495-6.22,1.932c-1.7,0.348-3.036,0.459-3.036,0.459
		c-1.184,0.099-2.152,1.152-2.152,2.34v2.686c0,1.131,0.879,1.999,1.985,1.999c0.056,0,0.111-0.002,0.168-0.007
		c0,0,2.278-0.178,4.438-0.62c2.583-0.529,5.121-1.317,7.545-2.342c2.382-1.009,4.678-2.255,6.822-3.704
		c1.712-1.156,3.224-2.455,3.224-2.455c0.901-0.774,0.951-2.095,0.111-2.935l-1.899-1.899
		C313.157,91.199,312.548,90.974,311.938,90.974L311.938,90.974z"/>
</g>
<g>
	<path fill="#EB83B3" d="M286.093,105.1c-0.022-0.001-2.274-0.181-4.376-0.611c-2.551-0.522-5.057-1.3-7.451-2.312
		c-2.351-0.994-4.618-2.225-6.738-3.658c-1.668-1.126-3.162-2.406-3.177-2.419c-0.387-0.332-0.618-0.766-0.634-1.19
		c-0.008-0.203,0.033-0.496,0.273-0.736l2.477-2.477c0.201-0.202,0.508-0.312,0.862-0.312c0.464,0,0.949,0.187,1.333,0.512
		c0.035,0.03,0.872,0.737,2.224,1.651c1.8,1.216,3.724,2.26,5.718,3.103c2.025,0.857,4.15,1.517,6.315,1.961
		c1.709,0.35,3.038,0.463,3.094,0.468c0.919,0.077,1.694,0.921,1.694,1.842v2.686c0,0.412-0.153,0.792-0.432,1.07
		c-0.275,0.276-0.65,0.429-1.054,0.429C286.222,105.105,286.136,105.103,286.093,105.1z"/>
	<path fill="#FFFFFF" d="M267.329,91.884c0.342,0,0.719,0.147,1.01,0.394c0.035,0.03,0.893,0.755,2.268,1.684
		c1.826,1.233,3.778,2.293,5.802,3.149c2.056,0.87,4.213,1.54,6.411,1.99c1.737,0.355,3.095,0.472,3.152,0.477
		c0.669,0.056,1.235,0.671,1.235,1.344v2.686c0,0.569-0.424,0.999-0.985,0.999c-0.029,0-0.06-0.001-0.09-0.004
		c-0.022-0.001-2.241-0.178-4.315-0.602c-2.518-0.516-4.992-1.284-7.355-2.283c-2.321-0.982-4.56-2.197-6.654-3.612
		c-1.642-1.109-3.116-2.372-3.131-2.384c-0.277-0.238-0.449-0.548-0.46-0.83c-0.005-0.151,0.038-0.273,0.128-0.363l1.767-1.767
		l0.71-0.71C266.928,91.943,267.108,91.884,267.329,91.884 M267.329,90.884c-0.471,0-0.908,0.151-1.216,0.459
		c-0.674,0.674-1.788,1.789-2.477,2.477s-0.514,1.884,0.388,2.659c0,0,1.51,1.297,3.223,2.455c2.146,1.45,4.441,2.696,6.824,3.704
		c2.423,1.024,4.961,1.812,7.545,2.342c2.159,0.441,4.438,0.62,4.438,0.62c0.057,0.004,0.112,0.007,0.168,0.007
		c1.106,0,1.985-0.867,1.985-1.999v-2.686c0-1.188-0.969-2.241-2.152-2.34c0,0-1.336-0.112-3.035-0.459
		c-2.13-0.437-4.224-1.086-6.222-1.932c-1.965-0.831-3.859-1.859-5.632-3.057c-1.345-0.909-2.181-1.618-2.181-1.618
		C268.494,91.097,267.888,90.884,267.329,90.884L267.329,90.884z"/>
</g>
<g>
	<path fill="#E41D1E" d="M377.565,108.115c-0.445,0-0.867-0.149-1.188-0.421c-0.035-0.03-0.872-0.738-2.223-1.651
		c-1.795-1.213-3.718-2.258-5.717-3.104c-2.027-0.858-4.152-1.518-6.316-1.961c-1.709-0.35-3.038-0.463-3.094-0.468
		c-0.919-0.077-1.694-0.921-1.694-1.842v-2.686c0-0.84,0.652-1.499,1.485-1.499c0.043,0,0.086,0.002,0.129,0.005
		c0.022,0.001,2.274,0.181,4.376,0.611c2.551,0.523,5.058,1.301,7.451,2.312c2.354,0.997,4.621,2.228,6.737,3.658
		c1.669,1.127,3.163,2.407,3.178,2.42c0.329,0.282,0.52,0.667,0.535,1.082c0.016,0.415-0.145,0.813-0.451,1.12l-1.899,1.899
		C378.542,107.924,378.064,108.115,377.565,108.115L377.565,108.115z"/>
	<path fill="#FFFFFF" d="M358.819,94.984c0.029,0,0.06,0.001,0.09,0.004c0.022,0.001,2.245,0.179,4.314,0.602
		c2.52,0.516,4.994,1.285,7.356,2.283c2.324,0.984,4.562,2.199,6.653,3.612c1.641,1.108,3.117,2.373,3.132,2.385
		c0.222,0.191,0.351,0.447,0.36,0.722c0.011,0.274-0.098,0.54-0.305,0.747l-1.899,1.899c-0.24,0.24-0.588,0.377-0.956,0.377
		c-0.327,0-0.634-0.107-0.863-0.303c-0.036-0.031-0.894-0.756-2.267-1.684c-1.821-1.231-3.773-2.291-5.803-3.15
		c-2.057-0.871-4.214-1.541-6.411-1.99c-1.737-0.355-3.095-0.472-3.152-0.477c-0.67-0.056-1.235-0.671-1.235-1.344v-2.686
		C357.834,95.413,358.258,94.984,358.819,94.984 M358.819,93.984c-1.106,0-1.985,0.867-1.985,1.999v2.686
		c0,1.188,0.969,2.241,2.152,2.34c0,0,1.336,0.112,3.035,0.459c2.131,0.437,4.224,1.086,6.222,1.932
		c1.966,0.832,3.861,1.86,5.632,3.058c1.344,0.908,2.18,1.618,2.18,1.618c0.426,0.362,0.969,0.541,1.511,0.541
		c0.609,0,1.219-0.226,1.663-0.67l1.899-1.899c0.84-0.84,0.79-2.161-0.111-2.935c0,0-1.512-1.299-3.224-2.455
		c-2.145-1.449-4.44-2.695-6.823-3.704c-2.423-1.024-4.962-1.812-7.545-2.342c-2.159-0.441-4.438-0.62-4.438-0.62
		C358.931,93.986,358.875,93.984,358.819,93.984L358.819,93.984z"/>
</g>
<g>
	<path fill="#A67E67" d="M317.355,131.961c-0.434,0-0.827-0.167-1.108-0.472c-0.282-0.305-0.418-0.71-0.385-1.143
		c0.002-0.022,0.182-2.274,0.611-4.376c0.523-2.555,1.301-5.062,2.312-7.45c0.995-2.353,2.226-4.62,3.657-6.739
		c1.127-1.667,2.407-3.162,2.42-3.177c0.341-0.397,0.803-0.634,1.234-0.634c0.19,0,0.465,0.048,0.691,0.274l2.477,2.477
		c0.487,0.488,0.396,1.494-0.2,2.195c-0.03,0.035-0.737,0.872-1.65,2.224c-1.215,1.797-2.259,3.721-3.104,5.717
		c-0.859,2.032-1.52,4.157-1.961,6.316c-0.35,1.708-0.462,3.038-0.467,3.094c-0.077,0.918-0.921,1.694-1.843,1.694H317.355z"/>
	<path fill="#FFFFFF" d="M326.098,108.47c0.142,0,0.252,0.042,0.338,0.128l2.477,2.477c0.266,0.266,0.224,0.987-0.229,1.518
		c-0.03,0.036-0.755,0.893-1.684,2.268c-1.231,1.824-2.291,3.776-3.148,5.802c-0.873,2.062-1.542,4.22-1.99,6.411
		c-0.355,1.737-0.472,3.095-0.476,3.151c-0.057,0.67-0.673,1.236-1.345,1.236h-2.686c-0.293,0-0.556-0.11-0.741-0.312
		c-0.187-0.201-0.276-0.472-0.253-0.764c0.002-0.022,0.179-2.246,0.602-4.315c0.518-2.523,1.285-4.998,2.283-7.356
		c0.982-2.323,2.198-4.562,3.611-6.654c1.109-1.641,2.373-3.117,2.386-3.131C325.49,108.642,325.81,108.47,326.098,108.47
		 M326.098,107.47c-0.558,0-1.158,0.279-1.613,0.809c0,0-1.298,1.511-2.455,3.223c-1.45,2.146-2.696,4.442-3.704,6.824
		c-1.025,2.423-1.812,4.962-2.342,7.545c-0.441,2.159-0.619,4.438-0.619,4.438c-0.093,1.184,0.803,2.153,1.991,2.153h2.686
		c1.188,0,2.241-0.969,2.341-2.152c0,0,0.111-1.336,0.459-3.035c0.436-2.13,1.086-4.223,1.932-6.222
		c0.831-1.964,1.859-3.859,3.057-5.632c0.908-1.345,1.617-2.18,1.617-2.18c0.77-0.906,0.847-2.198,0.173-2.873
		s-1.788-1.789-2.477-2.477C326.858,107.607,326.488,107.47,326.098,107.47L326.098,107.47z"/>
</g>
<g>
	<path fill="#91779C" d="M332.956,108.205c-0.354,0-0.661-0.111-0.862-0.312l-2.477-2.477c-0.24-0.24-0.281-0.533-0.273-0.736
		c0.016-0.424,0.247-0.858,0.634-1.19c0.015-0.013,1.509-1.293,3.177-2.419c2.121-1.433,4.388-2.664,6.738-3.658
		c2.394-1.012,4.9-1.79,7.45-2.312c2.105-0.43,4.354-0.609,4.377-0.611c0.043-0.003,0.086-0.005,0.129-0.005
		c0.833,0,1.485,0.658,1.485,1.499v2.686c0,0.921-0.775,1.765-1.694,1.842c-0.056,0.004-1.386,0.118-3.095,0.468
		c-2.164,0.443-4.289,1.103-6.315,1.961c-1.994,0.844-3.918,1.888-5.718,3.104c-1.351,0.913-2.188,1.62-2.223,1.65
		C333.905,108.019,333.42,108.205,332.956,108.205L332.956,108.205z"/>
	<path fill="#FFFFFF" d="M351.849,94.984c0.562,0,0.985,0.429,0.985,0.999v2.686c0,0.672-0.566,1.288-1.235,1.344
		c-0.058,0.005-1.416,0.121-3.154,0.477c-2.196,0.45-4.353,1.12-6.409,1.99c-2.024,0.856-3.977,1.916-5.803,3.15
		c-1.374,0.928-2.231,1.653-2.268,1.684c-0.294,0.25-0.662,0.393-1.009,0.393c-0.221,0-0.401-0.059-0.509-0.166l-0.71-0.71
		l-1.767-1.767c-0.09-0.09-0.133-0.212-0.128-0.363c0.011-0.281,0.183-0.591,0.46-0.83c0.015-0.012,1.489-1.275,3.131-2.384
		c2.095-1.415,4.333-2.63,6.654-3.612c2.363-0.999,4.838-1.767,7.354-2.283c2.071-0.423,4.294-0.601,4.316-0.603
		C351.789,94.985,351.819,94.984,351.849,94.984 M351.849,93.984c-0.056,0-0.111,0.002-0.168,0.007c0,0-2.278,0.178-4.438,0.62
		c-2.583,0.529-5.121,1.317-7.544,2.342c-2.383,1.008-4.678,2.254-6.824,3.704c-1.713,1.157-3.223,2.455-3.223,2.455
		c-0.901,0.774-1.076,1.971-0.388,2.659s1.803,1.803,2.477,2.477c0.308,0.308,0.745,0.459,1.216,0.459
		c0.559,0,1.165-0.213,1.656-0.631c0,0,0.836-0.709,2.18-1.617c1.773-1.198,3.668-2.227,5.633-3.058
		c1.998-0.846,4.091-1.495,6.221-1.932c1.699-0.348,3.036-0.459,3.036-0.459c1.184-0.099,2.152-1.152,2.152-2.34v-2.686
		C353.834,94.851,352.955,93.984,351.849,93.984L351.849,93.984z"/>
</g>
<g>
	<path fill="#F4EE91" d="M326.097,159.953c-0.432,0-0.893-0.237-1.232-0.634c-0.014-0.015-1.294-1.51-2.422-3.178
		c-1.432-2.119-2.662-4.387-3.656-6.739c-1.012-2.389-1.789-4.896-2.312-7.45c-0.431-2.105-0.609-4.354-0.611-4.377
		c-0.033-0.432,0.103-0.838,0.385-1.143c0.281-0.304,0.675-0.472,1.108-0.472h2.686c0.922,0,1.765,0.776,1.842,1.694
		c0.005,0.056,0.118,1.386,0.468,3.095c0.444,2.165,1.104,4.289,1.961,6.315c0.844,1.993,1.888,3.917,3.104,5.718
		c0.913,1.351,1.621,2.188,1.651,2.224c0.596,0.702,0.687,1.707,0.199,2.195l-2.477,2.477
		C326.562,159.905,326.287,159.953,326.097,159.953C326.098,159.953,326.098,159.953,326.097,159.953z"/>
	<path fill="#FFFFFF" d="M320.041,136.461c0.672,0,1.287,0.566,1.344,1.236c0.005,0.057,0.121,1.416,0.477,3.153
		c0.45,2.196,1.12,4.353,1.99,6.41c0.855,2.023,1.915,3.975,3.149,5.803c0.928,1.374,1.653,2.231,1.684,2.267
		c0.451,0.532,0.493,1.252,0.228,1.518l-1.189,1.189l-1.287,1.288c-0.086,0.086-0.197,0.128-0.339,0.128
		c-0.287,0-0.606-0.171-0.854-0.46c-0.013-0.015-1.273-1.486-2.386-3.131c-1.414-2.093-2.629-4.332-3.611-6.654
		c-0.998-2.359-1.767-4.833-2.283-7.354c-0.423-2.071-0.6-4.294-0.602-4.316c-0.023-0.292,0.066-0.563,0.253-0.764
		c0.186-0.201,0.448-0.312,0.741-0.312H320.041 M320.041,135.461h-2.686c-1.188,0-2.084,0.969-1.991,2.153
		c0,0,0.178,2.278,0.619,4.438c0.529,2.583,1.316,5.121,2.342,7.544c1.008,2.383,2.254,4.679,3.703,6.824
		c1.158,1.713,2.456,3.224,2.456,3.224c0.454,0.53,1.055,0.808,1.612,0.808c0.392,0,0.762-0.137,1.046-0.421
		c0.688-0.688,1.803-1.803,2.477-2.477s0.597-1.967-0.172-2.872c0,0-0.71-0.836-1.618-2.18c-1.197-1.773-2.226-3.668-3.057-5.633
		c-0.846-1.998-1.495-4.091-1.932-6.221c-0.348-1.699-0.46-3.036-0.46-3.036C322.282,136.43,321.229,135.461,320.041,135.461
		L320.041,135.461z"/>
</g>
<g>
	<path fill="#4EAF4A" d="M384.668,159.854c-0.395,0-0.772-0.161-1.064-0.452l-1.899-1.899c-0.651-0.651-0.698-1.795-0.103-2.497
		c0.03-0.035,0.737-0.872,1.651-2.224c1.217-1.804,2.261-3.727,3.103-5.716c0.857-2.024,1.518-4.15,1.962-6.317
		c0.35-1.708,0.463-3.038,0.468-3.094c0.077-0.918,0.92-1.694,1.842-1.694h2.686c0.434,0,0.827,0.167,1.108,0.472
		c0.282,0.305,0.419,0.71,0.386,1.143c-0.002,0.022-0.183,2.274-0.612,4.376c-0.521,2.551-1.3,5.058-2.312,7.45
		c-0.994,2.352-2.225,4.619-3.657,6.739c-1.126,1.667-2.406,3.163-2.419,3.178C385.509,159.665,385.105,159.854,384.668,159.854z"/>
	<path fill="#FFFFFF" d="M393.312,136.461c0.293,0,0.556,0.11,0.742,0.312c0.186,0.201,0.275,0.473,0.253,0.764
		c-0.002,0.022-0.179,2.242-0.603,4.315c-0.516,2.519-1.283,4.993-2.283,7.355c-0.981,2.322-2.197,4.561-3.612,6.654
		c-1.107,1.642-2.371,3.117-2.384,3.132c-0.2,0.233-0.469,0.361-0.758,0.361c-0.261,0-0.514-0.108-0.711-0.306l-1.899-1.899
		c-0.475-0.475-0.509-1.309-0.074-1.82c0.03-0.036,0.755-0.893,1.685-2.268c1.234-1.83,2.294-3.782,3.147-5.8
		c0.871-2.055,1.541-4.212,1.991-6.412c0.355-1.736,0.472-3.095,0.477-3.153c0.057-0.669,0.672-1.235,1.344-1.235H393.312
		 M393.312,135.461h-2.686c-1.188,0-2.241,0.969-2.34,2.152c0,0-0.112,1.337-0.46,3.035c-0.437,2.131-1.086,4.225-1.933,6.223
		c-0.829,1.961-1.857,3.855-3.056,5.631c-0.909,1.345-1.618,2.18-1.618,2.18c-0.769,0.906-0.71,2.334,0.13,3.174l1.899,1.899
		c0.4,0.4,0.91,0.599,1.418,0.599c0.558,0,1.112-0.238,1.517-0.71c0,0,1.298-1.511,2.454-3.224c1.451-2.147,2.697-4.443,3.704-6.824
		c1.025-2.423,1.813-4.962,2.342-7.545c0.441-2.158,0.62-4.438,0.62-4.438C395.396,136.43,394.501,135.461,393.312,135.461
		L393.312,135.461z"/>
</g>
<g>
	<path fill="#377EB9" d="M390.627,131.961c-0.922,0-1.765-0.776-1.842-1.694c-0.005-0.056-0.118-1.386-0.468-3.095
		c-0.443-2.163-1.104-4.287-1.961-6.314c-0.844-1.993-1.888-3.917-3.104-5.718c-0.914-1.352-1.621-2.188-1.651-2.224
		c-0.596-0.702-0.549-1.845,0.103-2.497l1.899-1.899c0.292-0.292,0.67-0.452,1.064-0.452c0.438,0,0.841,0.19,1.137,0.536
		c0.014,0.015,1.294,1.51,2.42,3.178c1.433,2.119,2.663,4.386,3.657,6.738c1.012,2.39,1.789,4.896,2.312,7.45
		c0.431,2.104,0.61,4.354,0.612,4.377c0.033,0.432-0.104,0.838-0.386,1.143c-0.281,0.304-0.675,0.472-1.108,0.472H390.627z"/>
	<path fill="#FFFFFF" d="M384.668,108.568c0.289,0,0.558,0.128,0.758,0.361c0.013,0.015,1.276,1.49,2.385,3.132
		c1.414,2.092,2.629,4.33,3.611,6.653c0.998,2.359,1.767,4.834,2.283,7.354c0.423,2.07,0.601,4.294,0.603,4.315
		c0.022,0.292-0.067,0.564-0.253,0.765c-0.187,0.201-0.449,0.312-0.742,0.312h-2.686c-0.672,0-1.287-0.566-1.344-1.236
		c-0.005-0.057-0.121-1.416-0.477-3.153c-0.449-2.194-1.119-4.351-1.99-6.409c-0.855-2.022-1.915-3.975-3.149-5.803
		c-0.929-1.375-1.653-2.231-1.684-2.267c-0.435-0.512-0.4-1.345,0.074-1.82l1.899-1.899
		C384.154,108.677,384.407,108.568,384.668,108.568 M384.668,107.568c-0.508,0-1.018,0.198-1.418,0.599l-1.899,1.899
		c-0.84,0.84-0.898,2.269-0.13,3.174c0,0,0.709,0.835,1.618,2.18c1.198,1.775,2.227,3.671,3.057,5.633
		c0.845,1.996,1.495,4.09,1.932,6.22c0.348,1.699,0.46,3.036,0.46,3.036c0.099,1.184,1.151,2.152,2.34,2.152h2.686
		c1.188,0,2.084-0.969,1.992-2.153c0,0-0.179-2.279-0.62-4.438c-0.529-2.582-1.316-5.12-2.342-7.544
		c-1.007-2.381-2.253-4.677-3.704-6.823c-1.156-1.713-2.454-3.224-2.454-3.224C385.78,107.807,385.226,107.568,384.668,107.568
		L384.668,107.568z"/>
</g>
<g>
	<path fill="#F4E72D" d="M358.82,173.438c-0.834,0-1.486-0.658-1.486-1.499v-2.686c0-0.921,0.775-1.765,1.694-1.842
		c0.056-0.004,1.385-0.118,3.095-0.468c2.165-0.443,4.289-1.104,6.314-1.961c1.993-0.842,3.917-1.886,5.718-3.103
		c1.351-0.913,2.188-1.621,2.223-1.65c0.32-0.272,0.742-0.422,1.188-0.422c0.499,0,0.977,0.191,1.31,0.523l1.899,1.899
		c0.307,0.307,0.467,0.705,0.451,1.12c-0.016,0.416-0.206,0.8-0.535,1.082c-0.015,0.013-1.511,1.294-3.178,2.42
		c-2.117,1.431-4.384,2.662-6.737,3.657c-2.395,1.013-4.9,1.791-7.45,2.312c-2.105,0.431-4.354,0.61-4.377,0.611L358.82,173.438z"/>
	<path fill="#FFFFFF" d="M377.565,160.308c0.368,0,0.716,0.137,0.956,0.377l1.899,1.899c0.207,0.207,0.315,0.473,0.305,0.747
		c-0.01,0.275-0.139,0.531-0.36,0.722c-0.015,0.012-1.487,1.274-3.132,2.385c-2.091,1.413-4.329,2.628-6.652,3.611
		c-2.364,1-4.839,1.768-7.355,2.283c-2.071,0.424-4.294,0.601-4.316,0.603c-0.029,0.002-0.06,0.003-0.089,0.003
		c-0.562,0-0.986-0.429-0.986-0.999v-2.686c0-0.672,0.565-1.288,1.235-1.344c0.058-0.005,1.415-0.121,3.154-0.477
		c2.196-0.45,4.353-1.12,6.408-1.99c2.023-0.855,3.976-1.915,5.803-3.149c1.374-0.928,2.231-1.653,2.268-1.684
		C376.932,160.415,377.238,160.308,377.565,160.308 M377.565,159.308c-0.542,0-1.085,0.178-1.511,0.541c0,0-0.836,0.709-2.18,1.618
		c-1.771,1.196-3.666,2.226-5.633,3.057c-1.997,0.846-4.09,1.495-6.22,1.932c-1.7,0.348-3.036,0.459-3.036,0.459
		c-1.184,0.099-2.152,1.152-2.152,2.34v2.686c0,1.131,0.879,1.999,1.986,1.999c0.055,0,0.11-0.002,0.167-0.006
		c0,0,2.278-0.178,4.438-0.62c2.583-0.528,5.121-1.316,7.545-2.342c2.382-1.008,4.678-2.254,6.822-3.703
		c1.712-1.156,3.224-2.455,3.224-2.455c0.901-0.774,0.951-2.095,0.111-2.935l-1.899-1.899
		C378.784,159.533,378.175,159.308,377.565,159.308L377.565,159.308z"/>
</g>
<g>
	<path fill="#A75627" d="M351.72,173.433c-0.022-0.001-2.274-0.181-4.376-0.611c-2.551-0.521-5.057-1.299-7.45-2.312
		c-2.352-0.994-4.619-2.225-6.739-3.658c-1.67-1.127-3.162-2.405-3.177-2.418c-0.387-0.332-0.618-0.766-0.634-1.189
		c-0.008-0.204,0.033-0.497,0.273-0.737l2.477-2.477c0.201-0.202,0.508-0.312,0.861-0.312c0.464,0,0.95,0.187,1.334,0.512
		c0.035,0.03,0.872,0.738,2.224,1.651c1.8,1.215,3.724,2.259,5.718,3.103c2.029,0.859,4.155,1.519,6.315,1.961
		c1.709,0.35,3.038,0.463,3.094,0.468c0.919,0.077,1.694,0.921,1.694,1.842v2.686c0,0.412-0.153,0.792-0.432,1.07
		c-0.276,0.276-0.65,0.428-1.055,0.428L351.72,173.433z"/>
	<path fill="#FFFFFF" d="M332.955,160.217c0.343,0,0.72,0.147,1.01,0.394c0.036,0.031,0.894,0.756,2.269,1.684
		c1.826,1.233,3.778,2.293,5.802,3.149c2.061,0.872,4.218,1.542,6.411,1.99c1.737,0.355,3.095,0.472,3.152,0.477
		c0.669,0.056,1.235,0.671,1.235,1.344v2.686c0,0.569-0.424,0.999-0.986,0.999c-0.029,0-0.06-0.001-0.089-0.003
		c-0.022-0.001-2.245-0.179-4.315-0.603c-2.518-0.515-4.992-1.283-7.355-2.283c-2.321-0.982-4.56-2.197-6.654-3.612
		c-1.642-1.108-3.116-2.371-3.131-2.383c-0.277-0.238-0.449-0.548-0.46-0.83c-0.005-0.151,0.038-0.274,0.128-0.364l1.287-1.288
		l1.189-1.189C332.555,160.276,332.734,160.217,332.955,160.217 M332.955,159.217c-0.47,0-0.907,0.151-1.215,0.459
		c-0.674,0.674-1.788,1.789-2.477,2.477s-0.514,1.885,0.388,2.659c0,0,1.51,1.297,3.223,2.454c2.146,1.45,4.441,2.696,6.824,3.704
		c2.423,1.025,4.961,1.813,7.545,2.342c2.159,0.442,4.438,0.62,4.438,0.62c0.057,0.004,0.112,0.006,0.167,0.006
		c1.107,0,1.986-0.867,1.986-1.999v-2.686c0-1.188-0.969-2.241-2.152-2.34c0,0-1.336-0.112-3.035-0.459
		c-2.13-0.436-4.224-1.086-6.222-1.932c-1.965-0.831-3.859-1.859-5.632-3.057c-1.345-0.908-2.181-1.618-2.181-1.618
		C334.12,159.431,333.515,159.217,332.955,159.217L332.955,159.217z"/>
</g>
<text transform="matrix(1 0 0 1 170.7573 168.0728)" font-family="'Lato-Regular'" font-size="14">Genomes</text>
<text transform="matrix(1 0 0 1 155.6592 217.8774)" font-family="'Lato-Light'" font-size="14">Gene grouping</text>
<text transform="matrix(1 0 0 1 163.6382 269.1289)" font-family="'Lato-Regular'" font-size="14">Pangenome</text>
<text transform="matrix(1 0 0 1 40.5737 137.0024)" font-family="'Lato-Regular'" font-size="9">A</text>
<text transform="matrix(1 0 0 1 106.3433 68.6694)" font-family="'Lato-Regular'" font-size="9">B</text>
<text transform="matrix(1 0 0 1 196.7173 44.0029)" font-family="'Lato-Regular'" font-size="9">C</text>
<text transform="matrix(1 0 0 1 286.3184 68.6694)" font-family="'Lato-Regular'" font-size="9">D</text>
<text transform="matrix(1 0 0 1 352.7197 137.0024)" font-family="'Lato-Regular'" font-size="9">E</text>
<circle fill="#E41D1E" cx="149.911" cy="304.628" r="5"/>
<circle fill="#E41D1E" cx="174.855" cy="304.628" r="5"/>
<circle fill="#E41D1E" cx="199.8" cy="304.628" r="5"/>
<circle fill="#E41D1E" cx="224.744" cy="304.628" r="5"/>
<circle fill="#E41D1E" cx="249.688" cy="304.628" r="5"/>
<circle fill="#4EAF4A" cx="149.911" cy="319.905" r="5"/>
<circle fill="#4EAF4A" cx="174.855" cy="319.905" r="5"/>
<circle fill="#4EAF4A" cx="199.8" cy="319.905" r="5"/>
<circle fill="#4EAF4A" cx="224.744" cy="319.905" r="5"/>
<circle fill="#4EAF4A" cx="249.688" cy="319.905" r="5"/>
<circle fill="#377EB9" cx="149.911" cy="335.183" r="5"/>
<circle fill="#377EB9" cx="174.855" cy="335.183" r="5"/>
<circle fill="#377EB9" cx="199.8" cy="335.183" r="5"/>
<circle fill="#EDEDED" cx="224.744" cy="335.183" r="5"/>
<circle fill="#377EB9" cx="249.688" cy="335.183" r="5"/>
<circle fill="#91779C" cx="149.911" cy="350.46" r="5"/>
<circle fill="#EDEDED" cx="174.855" cy="350.46" r="5"/>
<circle fill="#91779C" cx="199.8" cy="350.46" r="5"/>
<circle fill="#91779C" cx="224.744" cy="350.46" r="5"/>
<circle fill="#91779C" cx="249.688" cy="350.46" r="5"/>
<circle fill="#EDEDED" cx="149.911" cy="365.737" r="5"/>
<circle fill="#EDEDED" cx="174.855" cy="365.737" r="5"/>
<circle fill="#F4EE91" cx="199.8" cy="365.737" r="5"/>
<circle fill="#F4EE91" cx="224.744" cy="365.737" r="5"/>
<circle fill="#F4EE91" cx="249.688" cy="365.737" r="5"/>
<circle fill="#EDEDED" cx="149.911" cy="381.015" r="5"/>
<circle fill="#EDEDED" cx="174.855" cy="381.015" r="5"/>
<circle fill="#A67E67" cx="199.8" cy="381.015" r="5"/>
<circle fill="#A67E67" cx="224.744" cy="381.015" r="5"/>
<circle fill="#A67E67" cx="249.688" cy="381.015" r="5"/>
<circle fill="#86519C" cx="149.911" cy="396.292" r="5"/>
<circle fill="#86519C" cx="174.855" cy="396.292" r="5"/>
<circle fill="#EDEDED" cx="199.8" cy="396.292" r="5"/>
<circle fill="#EDEDED" cx="224.744" cy="396.292" r="5"/>
<circle fill="#EDEDED" cx="249.688" cy="396.292" r="5"/>
<circle fill="#EDEDED" cx="149.911" cy="411.569" r="5"/>
<circle fill="#EDEDED" cx="174.855" cy="411.569" r="5"/>
<circle fill="#EDEDED" cx="199.8" cy="411.569" r="5"/>
<circle fill="#F4E72D" cx="224.744" cy="411.569" r="5"/>
<circle fill="#F4E72D" cx="249.688" cy="411.569" r="5"/>
<circle fill="#E48081" cx="149.911" cy="426.847" r="5"/>
<circle fill="#E48081" cx="174.855" cy="426.847" r="5"/>
<circle fill="#EDEDED" cx="199.8" cy="426.847" r="5"/>
<circle fill="#EDEDED" cx="224.744" cy="426.847" r="5"/>
<circle fill="#EDEDED" cx="249.688" cy="426.847" r="5"/>
<circle fill="#789CB9" cx="149.911" cy="442.124" r="5"/>
<circle fill="#789CB9" cx="174.855" cy="442.124" r="5"/>
<circle fill="#EDEDED" cx="199.8" cy="442.124" r="5"/>
<circle fill="#EDEDED" cx="224.744" cy="442.124" r="5"/>
<circle fill="#EDEDED" cx="249.688" cy="442.124" r="5"/>
<circle fill="#7EAF7C" cx="149.911" cy="457.402" r="5"/>
<circle fill="#7EAF7C" cx="174.855" cy="457.402" r="5"/>
<circle fill="#EDEDED" cx="199.8" cy="457.402" r="5"/>
<circle fill="#EDEDED" cx="224.744" cy="457.402" r="5"/>
<circle fill="#EDEDED" cx="249.688" cy="457.402" r="5"/>
<circle fill="#EDEDED" cx="149.911" cy="472.68" r="5"/>
<circle fill="#EDEDED" cx="174.855" cy="472.68" r="5"/>
<circle fill="#F07E1A" cx="199.8" cy="472.68" r="5"/>
<circle fill="#F07E1A" cx="224.744" cy="472.68" r="5"/>
<circle fill="#EDEDED" cx="249.688" cy="472.68" r="5"/>
<circle fill="#EDEDED" cx="149.911" cy="487.957" r="5"/>
<circle fill="#EDEDED" cx="174.855" cy="487.957" r="5"/>
<circle fill="#EDEDED" cx="199.8" cy="487.957" r="5"/>
<circle fill="#EDEDED" cx="224.744" cy="487.957" r="5"/>
<circle fill="#A75627" cx="249.688" cy="487.957" r="5"/>
<circle fill="#EDEDED" cx="149.911" cy="503.234" r="5"/>
<circle fill="#EDEDED" cx="174.855" cy="503.234" r="5"/>
<circle fill="#EBB8D0" cx="199.8" cy="503.234" r="5"/>
<circle fill="#EDEDED" cx="224.744" cy="503.234" r="5"/>
<circle fill="#EDEDED" cx="249.688" cy="503.234" r="5"/>
<circle fill="#EDEDED" cx="149.911" cy="518.512" r="5"/>
<circle fill="#F0B885" cx="174.855" cy="518.512" r="5"/>
<circle fill="#EDEDED" cx="199.8" cy="518.512" r="5"/>
<circle fill="#EDEDED" cx="224.744" cy="518.512" r="5"/>
<circle fill="#EDEDED" cx="249.688" cy="518.512" r="5"/>
<circle fill="#EDEDED" cx="149.911" cy="533.789" r="5"/>
<circle fill="#EDEDED" cx="174.855" cy="533.789" r="5"/>
<circle fill="#EDEDED" cx="199.8" cy="533.789" r="5"/>
<circle fill="#EB83B3" cx="224.744" cy="533.789" r="5"/>
<circle fill="#EDEDED" cx="249.688" cy="533.789" r="5"/>
<path fill="none" stroke="#000000" stroke-linecap="round" stroke-linejoin="round" stroke-miterlimit="10" d="M138.559,324.905
	c-2.761,0-5-2.238-5-5v-2.639c0-2.761-2.239-5-5-5c2.761,0,5-2.238,5-5v-2.639c0-2.761,2.239-5,5-5"/>
<path fill="none" stroke="#000000" stroke-linecap="round" stroke-linejoin="round" stroke-miterlimit="10" d="M138.559,477.68
	c-2.761,0-5-2.238-5-5v-63.749c0-2.761-2.239-5-5-5c2.761,0,5-2.238,5-5v-63.748c0-2.761,2.239-5,5-5"/>
<path fill="none" stroke="#000000" stroke-linecap="round" stroke-linejoin="round" stroke-miterlimit="10" d="M138.744,538.789
	c-2.761,0-5-2.238-5-5v-17.916c0-2.762-2.239-5-5-5c2.761,0,5-2.238,5-5v-17.916c0-2.762,2.239-5,5-5"/>
<path fill="none" stroke="#000000" stroke-linecap="round" stroke-linejoin="round" stroke-miterlimit="10" d="M69.659,330.183
	c-2.761,0-5,2.239-5,5l0.185,94.303c0,2.762-2.239,5-5,5c2.761,0,5,2.238,5,5v94.304c0,2.762,2.239,5,5,5"/>
<g>
	<g>
		<line fill="none" stroke="#000000" stroke-miterlimit="10" x1="264.8" y1="302.454" x2="264.8" y2="535.963"/>
		<g>
			<polygon points="261.619,308.365 262.56,308.707 264.8,302.551 267.04,308.707 267.979,308.365 264.8,299.628 			"/>
		</g>
		<g>
			<polygon points="261.619,530.053 262.56,529.711 264.8,535.865 267.04,529.711 267.979,530.053 264.8,538.789 			"/>
		</g>
	</g>
</g>
<g>
	<g>
		<line fill="none" stroke="#000000" stroke-miterlimit="10" x1="280.3" y1="302.454" x2="280.3" y2="322.08"/>
		<g>
			<polygon points="277.119,308.365 278.06,308.707 280.3,302.551 282.54,308.707 283.479,308.365 280.3,299.628 			"/>
		</g>
		<g>
			<polygon points="277.119,316.168 278.06,315.827 280.3,321.982 282.54,315.827 283.479,316.168 280.3,324.905 			"/>
		</g>
	</g>
</g>
<text transform="matrix(1 0 0 1 104.7881 315.3081)" font-family="'Lato-Regular'" font-size="9">Core</text>
<text transform="matrix(1 0 0 1 291.7998 315.3081)" font-family="'Lato-Regular'" font-size="9">Core size</text>
<text transform="matrix(1 0 0 1 274.7998 422.2495)" font-family="'Lato-Regular'" font-size="9">Pangenome size</text>
<text transform="matrix(1 0 0 1 84.0073 406.9722)"><tspan x="0" y="0" font-family="'Lato-Regular'" font-size="9">Accessory</tspan><tspan x="23.269" y="10.8" font-family="'Lato-LightItalic'" font-size="9">Shell</tspan></text>
<text transform="matrix(1 0 0 1 87.2383 513.9141)"><tspan x="0" y="0" font-family="'Lato-Regular'" font-size="9">Singleton</tspan><tspan x="15.705" y="10.799" font-family="'Lato-LightItalic'" font-size="9">Cloud</tspan></text>
<text transform="matrix(1 0 0 1 16.4888 437.5269)" font-family="'Lato-LightItalic'" font-size="9">Disposable</text>
<text transform="matrix(1 0 0 1 146.8511 291.6284)" font-family="'Lato-Regular'" font-size="9">A</text>
<text transform="matrix(1 0 0 1 171.9438 291.6284)" font-family="'Lato-Regular'" font-size="9">B</text>
<text transform="matrix(1 0 0 1 196.7173 291.6284)" font-family="'Lato-Regular'" font-size="9">C</text>
<text transform="matrix(1 0 0 1 221.3564 291.6284)" font-family="'Lato-Regular'" font-size="9">D</text>
<text transform="matrix(1 0 0 1 247.0732 291.6284)" font-family="'Lato-Regular'" font-size="9">E</text>
<text transform="matrix(1 0 0 1 25.0303 51.2173)" font-family="'Lato-Regular'" font-size="9">Gene</text>
<text transform="matrix(1 0 0 1 330.8652 21.1499)" font-family="'Lato-Regular'" font-size="9">Similar genes</text>
<g>
	<g>
		
			<line fill="none" stroke="#000000" stroke-linecap="round" stroke-miterlimit="10" x1="49.425" y1="49.145" x2="67.979" y2="51.098"/>
		<g>
			<polygon points="65.821,52.576 67.686,51.067 66.176,49.204 67.608,49.354 69.116,51.218 67.253,52.726 			"/>
		</g>
	</g>
</g>
<g>
	<g>
		
			<line fill="none" stroke="#000000" stroke-linecap="round" stroke-miterlimit="10" x1="328.013" y1="20.228" x2="313.955" y2="28.388"/>
		<g>
			<polygon points="314.827,25.922 314.211,28.24 316.529,28.854 315.284,29.577 312.967,28.962 313.582,26.645 			"/>
		</g>
	</g>
</g>
<g>
	<g>
		
			<line fill="none" stroke="#000000" stroke-linecap="round" stroke-miterlimit="10" x1="359.967" y1="25.489" x2="366.357" y2="91.812"/>
		<g>
			<polygon points="364.479,89.992 366.329,91.518 367.854,89.667 367.991,91.099 366.467,92.949 364.616,91.424 			"/>
		</g>
	</g>
</g>
</svg>
