<?xml version="1.0" encoding="utf-8"?>
<!-- Generator: Adobe Illustrator 15.0.2, SVG Export Plug-In . SVG Version: 6.00 Build 0)  -->
<!DOCTYPE svg PUBLIC "-//W3C//DTD SVG 1.1//EN" "http://www.w3.org/Graphics/SVG/1.1/DTD/svg11.dtd">
<svg version="1.1" id="Layer_1" xmlns="http://www.w3.org/2000/svg" xmlns:xlink="http://www.w3.org/1999/xlink" x="0px" y="0px"
	 width="360px" height="216px" viewBox="0 0 360 216" enable-background="new 0 0 360 216" xml:space="preserve">
<rect fill="none" width="360" height="216"/>
<g>
	<defs>
		<rect id="SVGID_1_" x="35.15" y="3.98" width="237.25" height="114.52"/>
	</defs>
	<clipPath id="SVGID_2_">
		<use xlink:href="#SVGID_1_"  overflow="visible"/>
	</clipPath>
	<rect x="35.15" y="3.98" clip-path="url(#SVGID_2_)" fill="#FFFFFF" width="237.25" height="114.52"/>
	
		<line clip-path="url(#SVGID_2_)" fill="none" stroke="#FAFAFA" stroke-width="1.07" stroke-linejoin="round" stroke-miterlimit="10" x1="35.15" y1="99.622" x2="272.4" y2="99.622"/>
	
		<line clip-path="url(#SVGID_2_)" fill="none" stroke="#FAFAFA" stroke-width="1.07" stroke-linejoin="round" stroke-miterlimit="10" x1="35.15" y1="61.853" x2="272.4" y2="61.853"/>
	
		<line clip-path="url(#SVGID_2_)" fill="none" stroke="#FAFAFA" stroke-width="1.07" stroke-linejoin="round" stroke-miterlimit="10" x1="35.15" y1="24.098" x2="272.4" y2="24.098"/>
	
		<line clip-path="url(#SVGID_2_)" fill="none" stroke="#E5E5E5" stroke-width="0.43" stroke-linejoin="round" stroke-miterlimit="10" x1="35.15" y1="118.5" x2="272.4" y2="118.5"/>
	
		<line clip-path="url(#SVGID_2_)" fill="none" stroke="#E5E5E5" stroke-width="0.43" stroke-linejoin="round" stroke-miterlimit="10" x1="35.15" y1="80.745" x2="272.4" y2="80.745"/>
	
		<line clip-path="url(#SVGID_2_)" fill="none" stroke="#E5E5E5" stroke-width="0.43" stroke-linejoin="round" stroke-miterlimit="10" x1="35.15" y1="42.975" x2="272.4" y2="42.975"/>
	
		<line clip-path="url(#SVGID_2_)" fill="none" stroke="#E5E5E5" stroke-width="0.43" stroke-linejoin="round" stroke-miterlimit="10" x1="35.15" y1="5.22" x2="272.4" y2="5.22"/>
	
		<line clip-path="url(#SVGID_2_)" fill="none" stroke="#E5E5E5" stroke-width="0.43" stroke-linejoin="round" stroke-miterlimit="10" x1="50.63" y1="118.5" x2="50.63" y2="3.995"/>
	
		<line clip-path="url(#SVGID_2_)" fill="none" stroke="#E5E5E5" stroke-width="0.43" stroke-linejoin="round" stroke-miterlimit="10" x1="76.41" y1="118.5" x2="76.41" y2="3.995"/>
	
		<line clip-path="url(#SVGID_2_)" fill="none" stroke="#E5E5E5" stroke-width="0.43" stroke-linejoin="round" stroke-miterlimit="10" x1="102.2" y1="118.5" x2="102.2" y2="3.995"/>
	
		<line clip-path="url(#SVGID_2_)" fill="none" stroke="#E5E5E5" stroke-width="0.43" stroke-linejoin="round" stroke-miterlimit="10" x1="127.99" y1="118.5" x2="127.99" y2="3.995"/>
	
		<line clip-path="url(#SVGID_2_)" fill="none" stroke="#E5E5E5" stroke-width="0.43" stroke-linejoin="round" stroke-miterlimit="10" x1="153.78" y1="118.5" x2="153.78" y2="3.995"/>
	
		<line clip-path="url(#SVGID_2_)" fill="none" stroke="#E5E5E5" stroke-width="0.43" stroke-linejoin="round" stroke-miterlimit="10" x1="179.56" y1="118.5" x2="179.56" y2="3.995"/>
	
		<line clip-path="url(#SVGID_2_)" fill="none" stroke="#E5E5E5" stroke-width="0.43" stroke-linejoin="round" stroke-miterlimit="10" x1="205.35" y1="118.5" x2="205.35" y2="3.995"/>
	
		<line clip-path="url(#SVGID_2_)" fill="none" stroke="#E5E5E5" stroke-width="0.43" stroke-linejoin="round" stroke-miterlimit="10" x1="231.14" y1="118.5" x2="231.14" y2="3.995"/>
	
		<line clip-path="url(#SVGID_2_)" fill="none" stroke="#E5E5E5" stroke-width="0.43" stroke-linejoin="round" stroke-miterlimit="10" x1="256.93" y1="118.5" x2="256.93" y2="3.995"/>
	<rect x="39.02" y="88.748" clip-path="url(#SVGID_2_)" fill="#E41A1C" width="23.21" height="29.752"/>
	<rect x="39.02" y="3.98" clip-path="url(#SVGID_2_)" fill="#377EB8" width="23.21" height="84.768"/>
	<rect x="64.81" y="105.924" clip-path="url(#SVGID_2_)" fill="#E41A1C" width="23.21" height="12.576"/>
	<rect x="64.81" y="79.663" clip-path="url(#SVGID_2_)" fill="#377EB8" width="23.21" height="26.261"/>
	<rect x="90.6" y="110.611" clip-path="url(#SVGID_2_)" fill="#E41A1C" width="23.21" height="7.889"/>
	<rect x="90.6" y="77.197" clip-path="url(#SVGID_2_)" fill="#377EB8" width="23.21" height="33.414"/>
	<rect x="116.38" y="116.538" clip-path="url(#SVGID_2_)" fill="#E41A1C" width="23.21" height="1.962"/>
	<rect x="116.38" y="103.198" clip-path="url(#SVGID_2_)" fill="#377EB8" width="23.21" height="13.34"/>
	<rect x="142.17" y="117.851" clip-path="url(#SVGID_2_)" fill="#E41A1C" width="23.21" height="0.649"/>
	<rect x="142.17" y="116.293" clip-path="url(#SVGID_2_)" fill="#377EB8" width="23.21" height="1.558"/>
	<rect x="167.96" y="118.298" clip-path="url(#SVGID_2_)" fill="#E41A1C" width="23.21" height="0.202"/>
	<rect x="167.96" y="117.822" clip-path="url(#SVGID_2_)" fill="#377EB8" width="23.21" height="0.489"/>
	<rect x="193.75" y="117.403" clip-path="url(#SVGID_2_)" fill="#E41A1C" width="23.21" height="1.097"/>
	<rect x="193.75" y="108.361" clip-path="url(#SVGID_2_)" fill="#377EB8" width="23.21" height="9.042"/>
	<rect x="219.53" y="117.605" clip-path="url(#SVGID_2_)" fill="#E41A1C" width="23.21" height="0.895"/>
	<rect x="219.53" y="115.442" clip-path="url(#SVGID_2_)" fill="#377EB8" width="23.21" height="2.178"/>
	<rect x="245.32" y="117.202" clip-path="url(#SVGID_2_)" fill="#E41A1C" width="23.21" height="1.298"/>
	<rect x="245.32" y="103.732" clip-path="url(#SVGID_2_)" fill="#377EB8" width="23.21" height="13.484"/>
</g>
<g>
	<defs>
		<rect id="SVGID_3_" x="35.15" y="127.08" width="237.25" height="39.71"/>
	</defs>
	<clipPath id="SVGID_4_">
		<use xlink:href="#SVGID_3_"  overflow="visible"/>
	</clipPath>
	<rect x="35.15" y="127.08" clip-path="url(#SVGID_4_)" fill="#FFFFFF" width="237.25" height="39.71"/>
	
		<line clip-path="url(#SVGID_4_)" fill="none" stroke="#FAFAFA" stroke-width="1.07" stroke-linejoin="round" stroke-miterlimit="10" x1="35.15" y1="161.824" x2="272.4" y2="161.824"/>
	
		<line clip-path="url(#SVGID_4_)" fill="none" stroke="#FAFAFA" stroke-width="1.07" stroke-linejoin="round" stroke-miterlimit="10" x1="35.15" y1="151.898" x2="272.4" y2="151.898"/>
	
		<line clip-path="url(#SVGID_4_)" fill="none" stroke="#FAFAFA" stroke-width="1.07" stroke-linejoin="round" stroke-miterlimit="10" x1="35.15" y1="141.972" x2="272.4" y2="141.972"/>
	
		<line clip-path="url(#SVGID_4_)" fill="none" stroke="#FAFAFA" stroke-width="1.07" stroke-linejoin="round" stroke-miterlimit="10" x1="35.15" y1="132.041" x2="272.4" y2="132.041"/>
	
		<line clip-path="url(#SVGID_4_)" fill="none" stroke="#E5E5E5" stroke-width="0.43" stroke-linejoin="round" stroke-miterlimit="10" x1="35.15" y1="166.79" x2="272.4" y2="166.79"/>
	
		<line clip-path="url(#SVGID_4_)" fill="none" stroke="#E5E5E5" stroke-width="0.43" stroke-linejoin="round" stroke-miterlimit="10" x1="35.15" y1="156.858" x2="272.4" y2="156.858"/>
	
		<line clip-path="url(#SVGID_4_)" fill="none" stroke="#E5E5E5" stroke-width="0.43" stroke-linejoin="round" stroke-miterlimit="10" x1="35.15" y1="146.933" x2="272.4" y2="146.933"/>
	
		<line clip-path="url(#SVGID_4_)" fill="none" stroke="#E5E5E5" stroke-width="0.43" stroke-linejoin="round" stroke-miterlimit="10" x1="35.15" y1="137.006" x2="272.4" y2="137.006"/>
	
		<line clip-path="url(#SVGID_4_)" fill="none" stroke="#E5E5E5" stroke-width="0.43" stroke-linejoin="round" stroke-miterlimit="10" x1="35.15" y1="127.08" x2="272.4" y2="127.08"/>
	
		<line clip-path="url(#SVGID_4_)" fill="none" stroke="#E5E5E5" stroke-width="0.43" stroke-linejoin="round" stroke-miterlimit="10" x1="50.63" y1="166.79" x2="50.63" y2="127.08"/>
	
		<line clip-path="url(#SVGID_4_)" fill="none" stroke="#E5E5E5" stroke-width="0.43" stroke-linejoin="round" stroke-miterlimit="10" x1="76.41" y1="166.79" x2="76.41" y2="127.08"/>
	
		<line clip-path="url(#SVGID_4_)" fill="none" stroke="#E5E5E5" stroke-width="0.43" stroke-linejoin="round" stroke-miterlimit="10" x1="102.2" y1="166.79" x2="102.2" y2="127.08"/>
	
		<line clip-path="url(#SVGID_4_)" fill="none" stroke="#E5E5E5" stroke-width="0.43" stroke-linejoin="round" stroke-miterlimit="10" x1="127.99" y1="166.79" x2="127.99" y2="127.08"/>
	
		<line clip-path="url(#SVGID_4_)" fill="none" stroke="#E5E5E5" stroke-width="0.43" stroke-linejoin="round" stroke-miterlimit="10" x1="153.78" y1="166.79" x2="153.78" y2="127.08"/>
	
		<line clip-path="url(#SVGID_4_)" fill="none" stroke="#E5E5E5" stroke-width="0.43" stroke-linejoin="round" stroke-miterlimit="10" x1="179.56" y1="166.79" x2="179.56" y2="127.08"/>
	
		<line clip-path="url(#SVGID_4_)" fill="none" stroke="#E5E5E5" stroke-width="0.43" stroke-linejoin="round" stroke-miterlimit="10" x1="205.35" y1="166.79" x2="205.35" y2="127.08"/>
	
		<line clip-path="url(#SVGID_4_)" fill="none" stroke="#E5E5E5" stroke-width="0.43" stroke-linejoin="round" stroke-miterlimit="10" x1="231.14" y1="166.79" x2="231.14" y2="127.08"/>
	
		<line clip-path="url(#SVGID_4_)" fill="none" stroke="#E5E5E5" stroke-width="0.43" stroke-linejoin="round" stroke-miterlimit="10" x1="256.93" y1="166.79" x2="256.93" y2="127.08"/>
	<rect x="39.02" y="156.474" clip-path="url(#SVGID_4_)" fill="#E41A1C" width="23.21" height="10.316"/>
	<rect x="39.02" y="127.075" clip-path="url(#SVGID_4_)" fill="#377EB8" width="23.21" height="29.394"/>
	<rect x="64.81" y="153.934" clip-path="url(#SVGID_4_)" fill="#E41A1C" width="23.21" height="12.856"/>
	<rect x="64.81" y="127.08" clip-path="url(#SVGID_4_)" fill="#377EB8" width="23.21" height="26.854"/>
	<rect x="90.6" y="159.199" clip-path="url(#SVGID_4_)" fill="#E41A1C" width="23.21" height="7.591"/>
	<rect x="90.6" y="127.08" clip-path="url(#SVGID_4_)" fill="#377EB8" width="23.21" height="32.119"/>
	<rect x="116.38" y="161.694" clip-path="url(#SVGID_4_)" fill="#E41A1C" width="23.21" height="5.096"/>
	<rect x="116.38" y="127.075" clip-path="url(#SVGID_4_)" fill="#377EB8" width="23.21" height="34.614"/>
	<rect x="142.17" y="155.104" clip-path="url(#SVGID_4_)" fill="#E41A1C" width="23.21" height="11.687"/>
	<rect x="142.17" y="127.08" clip-path="url(#SVGID_4_)" fill="#377EB8" width="23.21" height="28.023"/>
	<rect x="167.96" y="155.304" clip-path="url(#SVGID_4_)" fill="#E41A1C" width="23.21" height="11.486"/>
	<rect x="167.96" y="127.08" clip-path="url(#SVGID_4_)" fill="#377EB8" width="23.21" height="28.224"/>
	<rect x="193.75" y="162.484" clip-path="url(#SVGID_4_)" fill="#E41A1C" width="23.21" height="4.306"/>
	<rect x="193.75" y="127.08" clip-path="url(#SVGID_4_)" fill="#377EB8" width="23.21" height="35.399"/>
	<rect x="219.53" y="155.299" clip-path="url(#SVGID_4_)" fill="#E41A1C" width="23.21" height="11.491"/>
	<rect x="219.53" y="127.08" clip-path="url(#SVGID_4_)" fill="#377EB8" width="23.21" height="28.214"/>
	<rect x="245.32" y="163.314" clip-path="url(#SVGID_4_)" fill="#E41A1C" width="23.21" height="3.476"/>
	<rect x="245.32" y="127.075" clip-path="url(#SVGID_4_)" fill="#377EB8" width="23.21" height="36.234"/>
</g>
<line fill="none" stroke="#000000" stroke-width="1.07" stroke-linecap="square" stroke-linejoin="round" stroke-miterlimit="10" x1="35.15" y1="118.5" x2="35.15" y2="3.99"/>
<text transform="matrix(1 0 0 1 14.5 120.5273)" font-family="'Lato-Regular'" font-size="6">0e+00</text>
<text transform="matrix(1 0 0 1 14.5 82.77)" font-family="'Lato-Regular'" font-size="6">1e+06</text>
<text transform="matrix(1 0 0 1 14.5 45)" font-family="'Lato-Regular'" font-size="6">2e+06</text>
<text transform="matrix(1 0 0 1 14.5 7.2422)" font-family="'Lato-Regular'" font-size="6">3e+06</text>
<line fill="none" stroke="#000000" stroke-width="1.07" stroke-linejoin="round" stroke-miterlimit="10" x1="33.16" y1="118.5" x2="35.15" y2="118.5"/>
<line fill="none" stroke="#000000" stroke-width="1.07" stroke-linejoin="round" stroke-miterlimit="10" x1="33.16" y1="80.743" x2="35.15" y2="80.743"/>
<line fill="none" stroke="#000000" stroke-width="1.07" stroke-linejoin="round" stroke-miterlimit="10" x1="33.16" y1="42.972" x2="35.15" y2="42.972"/>
<line fill="none" stroke="#000000" stroke-width="1.07" stroke-linejoin="round" stroke-miterlimit="10" x1="33.16" y1="5.215" x2="35.15" y2="5.215"/>
<line fill="none" stroke="#000000" stroke-width="1.07" stroke-linecap="square" stroke-linejoin="round" stroke-miterlimit="10" x1="35.15" y1="166.79" x2="35.15" y2="127.085"/>
<text transform="matrix(1 0 0 1 19.8599 168.9404)" font-family="'Lato-Regular'" font-size="6">0.00</text>
<text transform="matrix(1 0 0 1 19.8599 158.8867)" font-family="'Lato-Regular'" font-size="6">0.25</text>
<text transform="matrix(1 0 0 1 19.8599 148.9629)" font-family="'Lato-Regular'" font-size="6">0.50</text>
<text transform="matrix(1 0 0 1 19.8599 139.0371)" font-family="'Lato-Regular'" font-size="6">0.75</text>
<text transform="matrix(1 0 0 1 19.8599 129.1113)" font-family="'Lato-Regular'" font-size="6">1.00</text>
<line fill="none" stroke="#000000" stroke-width="1.07" stroke-linejoin="round" stroke-miterlimit="10" x1="33.16" y1="166.79" x2="35.15" y2="166.79"/>
<line fill="none" stroke="#000000" stroke-width="1.07" stroke-linejoin="round" stroke-miterlimit="10" x1="33.16" y1="156.859" x2="35.15" y2="156.859"/>
<line fill="none" stroke="#000000" stroke-width="1.07" stroke-linejoin="round" stroke-miterlimit="10" x1="33.16" y1="146.936" x2="35.15" y2="146.936"/>
<line fill="none" stroke="#000000" stroke-width="1.07" stroke-linejoin="round" stroke-miterlimit="10" x1="33.16" y1="137.01" x2="35.15" y2="137.01"/>
<line fill="none" stroke="#000000" stroke-width="1.07" stroke-linejoin="round" stroke-miterlimit="10" x1="33.16" y1="127.085" x2="35.15" y2="127.085"/>
<g>
	<defs>
		<polygon id="SVGID_5_" points="272.4,83.39 272.4,83.39 272.4,3.98 		"/>
	</defs>
	<clipPath id="SVGID_6_">
		<use xlink:href="#SVGID_5_"  overflow="visible"/>
	</clipPath>
</g>
<g>
	<defs>
		<polygon id="SVGID_7_" points="272.4,166.79 272.4,166.79 272.4,87.38 		"/>
	</defs>
	<clipPath id="SVGID_8_">
		<use xlink:href="#SVGID_7_"  overflow="visible"/>
	</clipPath>
</g>
<line fill="none" stroke="#000000" stroke-width="1.07" stroke-linejoin="round" stroke-miterlimit="10" x1="50.63" y1="168.78" x2="50.63" y2="166.79"/>
<line fill="none" stroke="#000000" stroke-width="1.07" stroke-linejoin="round" stroke-miterlimit="10" x1="76.41" y1="168.78" x2="76.41" y2="166.79"/>
<line fill="none" stroke="#000000" stroke-width="1.07" stroke-linejoin="round" stroke-miterlimit="10" x1="102.2" y1="168.78" x2="102.2" y2="166.79"/>
<line fill="none" stroke="#000000" stroke-width="1.07" stroke-linejoin="round" stroke-miterlimit="10" x1="127.99" y1="168.78" x2="127.99" y2="166.79"/>
<line fill="none" stroke="#000000" stroke-width="1.07" stroke-linejoin="round" stroke-miterlimit="10" x1="153.78" y1="168.78" x2="153.78" y2="166.79"/>
<line fill="none" stroke="#000000" stroke-width="1.07" stroke-linejoin="round" stroke-miterlimit="10" x1="179.56" y1="168.78" x2="179.56" y2="166.79"/>
<line fill="none" stroke="#000000" stroke-width="1.07" stroke-linejoin="round" stroke-miterlimit="10" x1="205.35" y1="168.78" x2="205.35" y2="166.79"/>
<line fill="none" stroke="#000000" stroke-width="1.07" stroke-linejoin="round" stroke-miterlimit="10" x1="231.14" y1="168.78" x2="231.14" y2="166.79"/>
<line fill="none" stroke="#000000" stroke-width="1.07" stroke-linejoin="round" stroke-miterlimit="10" x1="256.93" y1="168.78" x2="256.93" y2="166.79"/>
<text transform="matrix(0.7071 -0.7071 0.7071 0.7071 25.6426 201.501)" font-family="'Lato-Regular'" font-size="5.9963">Proteobacteria</text>
<text transform="matrix(0.7071 -0.7071 0.7071 0.7071 59.7529 193.1699)" font-family="'Lato-Regular'" font-size="5.9963">Firmicutes</text>
<text transform="matrix(0.7071 -0.7071 0.7071 0.7071 77.7832 200.9199)" font-family="'Lato-Regular'" font-size="5.9963">Actinobacteria</text>
<text transform="matrix(0.7071 -0.7071 0.7071 0.7071 105.0029 199.4902)" font-family="'Lato-Regular'" font-size="5.9963">Bacteroidetes</text>
<text transform="matrix(0.7071 -0.7071 0.7071 0.7071 135.2236 195.0596)"><tspan x="0" y="0" font-family="'Lato-Regular'" font-size="5.9963">T</tspan><tspan x="2.907" y="0" font-family="'Lato-Regular'" font-size="5.9963">enericutes</tspan></text>
<text transform="matrix(0.7071 -0.7071 0.7071 0.7071 160.793 195.2793)"><tspan x="0" y="0" font-family="'Lato-Regular'" font-size="5.9963">Chla</tspan><tspan x="12.017" y="0.001" font-family="'Lato-Regular'" font-size="5.9963">m</tspan><tspan x="16.843" y="0" font-family="'Lato-Regular'" font-size="5.9963">y</tspan><tspan x="19.842" y="0.001" font-family="'Lato-Regular'" font-size="5.9963">diae</tspan></text>
<text transform="matrix(0.7071 -0.7071 0.7071 0.7071 181.2432 200.6191)" font-family="'Lato-Regular'" font-size="5.9963">Cyanobacteria</text>
<text transform="matrix(0.7071 -0.7071 0.7071 0.7071 210.124 197.5195)" font-family="'Lato-Regular'" font-size="5.9963">Spirochaetes</text>
<text transform="matrix(0.7071 -0.7071 0.7071 0.7071 249.7939 183.6504)" font-family="'Lato-Regular'" font-size="5.9963">other</text>
<text transform="matrix(1 0 0 1 140.5898 210.4199)"><tspan x="0" y="0" font-family="'Lato-Regular'" font-size="8">P</tspan><tspan x="4.888" y="0" font-family="'Lato-Regular'" font-size="8">h</tspan><tspan x="9.208" y="0" font-family="'Lato-Regular'" font-size="8">ylum</tspan></text>
<text transform="matrix(0 -1 1 0 11.3203 86.5093)" font-family="'Lato-Regular'" font-size="8"># Gene groups</text>
<text transform="matrix(0 -1 1 0 11.3203 156.2812)" font-family="'Lato-Regular'" font-size="8">Ratio</text>
<rect x="280.9" y="58.83" fill="#FFFFFF" width="66.609" height="53.12"/>
<text transform="matrix(1 0 0 1 285.1602 68.8101)" font-family="'Lato-Regular'" font-size="8">Gene group type</text>
<rect x="285.16" y="73.13" fill="#FFFFFF" width="17.28" height="17.28"/>
<rect x="285.16" y="73.13" fill="none" stroke="#FFFFFF" stroke-width="1.07" stroke-linecap="round" stroke-linejoin="round" stroke-miterlimit="10" width="17.28" height="17.28"/>
<rect x="285.86" y="73.85" fill="#E41A1C" width="15.859" height="15.86"/>
<rect x="285.86" y="73.85" fill="#E41A1C" width="15.859" height="15.86"/>
<rect x="285.16" y="90.41" fill="#FFFFFF" width="17.28" height="17.28"/>
<rect x="285.16" y="90.41" fill="none" stroke="#FFFFFF" stroke-width="1.07" stroke-linecap="round" stroke-linejoin="round" stroke-miterlimit="10" width="17.28" height="17.28"/>
<rect x="285.86" y="91.13" fill="#377EB8" width="15.859" height="15.86"/>
<rect x="285.86" y="91.13" fill="#377EB8" width="15.859" height="15.86"/>
<text transform="matrix(1 0 0 1 304.5996 83.9199)" font-family="'Lato-Regular'" font-size="6">Accessory</text>
<text transform="matrix(1 0 0 1 304.5996 101.2002)" font-family="'Lato-Regular'" font-size="6">Singleton</text>
</svg>
