<?xml version="1.0" encoding="utf-8"?>
<!-- Generator: Adobe Illustrator 15.0.2, SVG Export Plug-In . SVG Version: 6.00 Build 0)  -->
<!DOCTYPE svg PUBLIC "-//W3C//DTD SVG 1.1//EN" "http://www.w3.org/Graphics/SVG/1.1/DTD/svg11.dtd">
<svg version="1.1" id="Layer_1" xmlns="http://www.w3.org/2000/svg" xmlns:xlink="http://www.w3.org/1999/xlink" x="0px" y="0px"
	 width="360px" height="180px" viewBox="0 0 360 180" enable-background="new 0 0 360 180" xml:space="preserve">
<rect fill="none" width="360" height="180"/>
<g>
	<defs>
		<rect id="SVGID_1_" x="32.01" y="3.99" width="324.01" height="153.62"/>
	</defs>
	<clipPath id="SVGID_2_">
		<use xlink:href="#SVGID_1_"  overflow="visible"/>
	</clipPath>
	<rect x="32.01" y="3.99" clip-path="url(#SVGID_2_)" fill="#FFFFFF" width="324.01" height="153.62"/>
	
		<line clip-path="url(#SVGID_2_)" fill="none" stroke="#E5E5E5" stroke-width="0.43" stroke-linejoin="round" stroke-miterlimit="10" x1="32.01" y1="157.61" x2="356.01" y2="157.61"/>
	
		<line clip-path="url(#SVGID_2_)" fill="none" stroke="#E5E5E5" stroke-width="0.43" stroke-linejoin="round" stroke-miterlimit="10" x1="32.01" y1="119.2" x2="356.01" y2="119.2"/>
	
		<line clip-path="url(#SVGID_2_)" fill="none" stroke="#E5E5E5" stroke-width="0.43" stroke-linejoin="round" stroke-miterlimit="10" x1="32.01" y1="80.8" x2="356.01" y2="80.8"/>
	
		<line clip-path="url(#SVGID_2_)" fill="none" stroke="#E5E5E5" stroke-width="0.43" stroke-linejoin="round" stroke-miterlimit="10" x1="32.01" y1="42.39" x2="356.01" y2="42.39"/>
	
		<line clip-path="url(#SVGID_2_)" fill="none" stroke="#E5E5E5" stroke-width="0.43" stroke-linejoin="round" stroke-miterlimit="10" x1="32.01" y1="3.99" x2="356.01" y2="3.99"/>
	<rect x="32.01" y="8.72" clip-path="url(#SVGID_2_)" fill="#377EB8" width="6.48" height="148.89"/>
	<rect x="38.49" y="98.59" clip-path="url(#SVGID_2_)" fill="#377EB8" width="6.48" height="59.021"/>
	<rect x="44.97" y="138.41" clip-path="url(#SVGID_2_)" fill="#377EB8" width="6.48" height="19.2"/>
	<rect x="51.45" y="144.3" clip-path="url(#SVGID_2_)" fill="#377EB8" width="6.48" height="13.311"/>
	<rect x="57.93" y="146.6" clip-path="url(#SVGID_2_)" fill="#377EB8" width="6.48" height="11.011"/>
	<rect x="64.41" y="145.58" clip-path="url(#SVGID_2_)" fill="#377EB8" width="6.48" height="12.03"/>
	<rect x="70.89" y="149.29" clip-path="url(#SVGID_2_)" fill="#377EB8" width="6.48" height="8.32"/>
	<rect x="77.37" y="150.44" clip-path="url(#SVGID_2_)" fill="#377EB8" width="6.48" height="7.17"/>
	<rect x="83.85" y="149.67" clip-path="url(#SVGID_2_)" fill="#377EB8" width="6.48" height="7.94"/>
	<rect x="90.33" y="151.85" clip-path="url(#SVGID_2_)" fill="#377EB8" width="6.48" height="5.761"/>
	<rect x="96.81" y="154.15" clip-path="url(#SVGID_2_)" fill="#377EB8" width="6.48" height="3.46"/>
	<rect x="103.29" y="152.87" clip-path="url(#SVGID_2_)" fill="#377EB8" width="6.48" height="4.74"/>
	<rect x="109.77" y="152.75" clip-path="url(#SVGID_2_)" fill="#377EB8" width="6.48" height="4.86"/>
	<rect x="116.25" y="153.39" clip-path="url(#SVGID_2_)" fill="#377EB8" width="6.48" height="4.221"/>
	<rect x="122.73" y="153" clip-path="url(#SVGID_2_)" fill="#377EB8" width="6.48" height="4.61"/>
	<rect x="129.21" y="151.59" clip-path="url(#SVGID_2_)" fill="#377EB8" width="6.48" height="6.021"/>
	<rect x="135.69" y="152.75" clip-path="url(#SVGID_2_)" fill="#377EB8" width="6.48" height="4.86"/>
	<rect x="142.17" y="155.05" clip-path="url(#SVGID_2_)" fill="#377EB8" width="6.48" height="2.561"/>
	<rect x="148.65" y="153.51" clip-path="url(#SVGID_2_)" fill="#377EB8" width="6.48" height="4.101"/>
	<rect x="155.13" y="154.79" clip-path="url(#SVGID_2_)" fill="#377EB8" width="6.48" height="2.82"/>
	<rect x="161.61" y="154.67" clip-path="url(#SVGID_2_)" fill="#377EB8" width="6.48" height="2.94"/>
	<rect x="168.09" y="152.23" clip-path="url(#SVGID_2_)" fill="#377EB8" width="6.48" height="5.38"/>
	<rect x="174.57" y="151.59" clip-path="url(#SVGID_2_)" fill="#377EB8" width="6.48" height="6.021"/>
	<rect x="181.05" y="151.47" clip-path="url(#SVGID_2_)" fill="#377EB8" width="6.48" height="6.141"/>
	<rect x="187.53" y="154.03" clip-path="url(#SVGID_2_)" fill="#377EB8" width="6.479" height="3.58"/>
	<rect x="194.01" y="155.56" clip-path="url(#SVGID_2_)" fill="#377EB8" width="6.48" height="2.051"/>
	<rect x="200.49" y="154.67" clip-path="url(#SVGID_2_)" fill="#377EB8" width="6.479" height="2.94"/>
	<rect x="206.97" y="154.54" clip-path="url(#SVGID_2_)" fill="#377EB8" width="6.48" height="3.07"/>
	<rect x="213.45" y="154.03" clip-path="url(#SVGID_2_)" fill="#377EB8" width="6.479" height="3.58"/>
	<rect x="219.93" y="153.13" clip-path="url(#SVGID_2_)" fill="#377EB8" width="6.48" height="4.48"/>
	<rect x="226.41" y="153.9" clip-path="url(#SVGID_2_)" fill="#377EB8" width="6.479" height="3.71"/>
	<rect x="232.89" y="153.51" clip-path="url(#SVGID_2_)" fill="#377EB8" width="6.48" height="4.101"/>
	<rect x="239.37" y="153.9" clip-path="url(#SVGID_2_)" fill="#377EB8" width="6.479" height="3.71"/>
	<rect x="245.85" y="151.47" clip-path="url(#SVGID_2_)" fill="#377EB8" width="6.48" height="6.141"/>
	<rect x="252.33" y="153.26" clip-path="url(#SVGID_2_)" fill="#377EB8" width="6.479" height="4.351"/>
	<rect x="258.81" y="150.44" clip-path="url(#SVGID_2_)" fill="#377EB8" width="6.48" height="7.17"/>
	<rect x="265.29" y="153.64" clip-path="url(#SVGID_2_)" fill="#377EB8" width="6.479" height="3.971"/>
	<rect x="271.77" y="152.87" clip-path="url(#SVGID_2_)" fill="#377EB8" width="6.48" height="4.74"/>
	<rect x="278.25" y="152.62" clip-path="url(#SVGID_2_)" fill="#377EB8" width="6.48" height="4.99"/>
	<rect x="284.73" y="149.16" clip-path="url(#SVGID_2_)" fill="#377EB8" width="6.479" height="8.45"/>
	<rect x="291.21" y="148.65" clip-path="url(#SVGID_2_)" fill="#377EB8" width="6.48" height="8.96"/>
	<rect x="297.69" y="143.27" clip-path="url(#SVGID_2_)" fill="#377EB8" width="6.479" height="14.341"/>
	<rect x="304.17" y="136.87" clip-path="url(#SVGID_2_)" fill="#377EB8" width="6.48" height="20.74"/>
	<rect x="310.65" y="152.36" clip-path="url(#SVGID_2_)" fill="#377EB8" width="6.479" height="5.25"/>
	<rect x="317.13" y="150.7" clip-path="url(#SVGID_2_)" fill="#377EB8" width="6.48" height="6.91"/>
	<rect x="323.61" y="136.49" clip-path="url(#SVGID_2_)" fill="#377EB8" width="6.479" height="21.12"/>
	<rect x="330.09" y="149.93" clip-path="url(#SVGID_2_)" fill="#377EB8" width="6.48" height="7.681"/>
	<rect x="336.57" y="144.68" clip-path="url(#SVGID_2_)" fill="#377EB8" width="6.479" height="12.931"/>
	<rect x="343.05" y="25.24" clip-path="url(#SVGID_2_)" fill="#377EB8" width="6.48" height="132.37"/>
	<rect x="349.53" y="120.23" clip-path="url(#SVGID_2_)" fill="#377EB8" width="6.479" height="37.38"/>
</g>
<line fill="none" stroke="#000000" stroke-width="1.07" stroke-linecap="square" stroke-linejoin="round" stroke-miterlimit="10" x1="32.01" y1="157.61" x2="32.01" y2="3.99"/>
<text transform="matrix(1 0 0 1 24.9399 159.7598)" font-family="'Lato-Regular'" font-size="6">0</text>
<text transform="matrix(1 0 0 1 17.98 121.3496)" font-family="'Lato-Regular'" font-size="6">300</text>
<text transform="matrix(1 0 0 1 17.98 82.9502)" font-family="'Lato-Regular'" font-size="6">600</text>
<text transform="matrix(1 0 0 1 17.98 44.54)" font-family="'Lato-Regular'" font-size="6">900</text>
<text transform="matrix(1 0 0 1 14.5 6.1401)" font-family="'Lato-Regular'" font-size="6">1200</text>
<line fill="none" stroke="#000000" stroke-width="1.07" stroke-linejoin="round" stroke-miterlimit="10" x1="30.02" y1="157.61" x2="32.01" y2="157.61"/>
<line fill="none" stroke="#000000" stroke-width="1.07" stroke-linejoin="round" stroke-miterlimit="10" x1="30.02" y1="119.2" x2="32.01" y2="119.2"/>
<line fill="none" stroke="#000000" stroke-width="1.07" stroke-linejoin="round" stroke-miterlimit="10" x1="30.02" y1="80.8" x2="32.01" y2="80.8"/>
<line fill="none" stroke="#000000" stroke-width="1.07" stroke-linejoin="round" stroke-miterlimit="10" x1="30.02" y1="42.39" x2="32.01" y2="42.39"/>
<line fill="none" stroke="#000000" stroke-width="1.07" stroke-linejoin="round" stroke-miterlimit="10" x1="30.02" y1="3.99" x2="32.01" y2="3.99"/>
<line fill="none" stroke="#000000" stroke-width="1.07" stroke-linejoin="round" stroke-miterlimit="10" x1="35.25" y1="159.6" x2="35.25" y2="157.61"/>
<line fill="none" stroke="#000000" stroke-width="1.07" stroke-linejoin="round" stroke-miterlimit="10" x1="117.42" y1="159.6" x2="117.42" y2="157.61"/>
<line fill="none" stroke="#000000" stroke-width="1.07" stroke-linejoin="round" stroke-miterlimit="10" x1="199.6" y1="159.6" x2="199.6" y2="157.61"/>
<line fill="none" stroke="#000000" stroke-width="1.07" stroke-linejoin="round" stroke-miterlimit="10" x1="281.78" y1="159.6" x2="281.78" y2="157.61"/>
<text transform="matrix(1 0 0 1 33.5098 165.5)" font-family="'Lato-Regular'" font-size="6">0</text>
<text transform="matrix(1 0 0 1 112.2002 165.5)" font-family="'Lato-Regular'" font-size="6">250</text>
<text transform="matrix(1 0 0 1 194.3799 165.5)" font-family="'Lato-Regular'" font-size="6">500</text>
<text transform="matrix(1 0 0 1 276.5596 165.5)" font-family="'Lato-Regular'" font-size="6">750</text>
<text transform="matrix(1 0 0 1 125.8599 174.4199)" font-family="'Lato-Regular'" font-size="8">Number of times gene group is outlying</text>
<text transform="matrix(0 -1 1 0 11.3203 121.6699)" font-family="'Lato-Regular'" font-size="8">Number of gene groups</text>
</svg>
